<?xml version="1.0" standalone="no"?>
<!DOCTYPE svg PUBLIC "-//W3C//DTD SVG 20010904//EN"
 "http://www.w3.org/TR/2001/REC-SVG-20010904/DTD/svg10.dtd">
<svg version="1.0" xmlns="http://www.w3.org/2000/svg"
 width="1280.000000pt" height="640.000000pt" viewBox="0 0 1280.000000 640.000000"
 preserveAspectRatio="xMidYMid meet">
<metadata>
Created by potrace 1.15, written by Peter Selinger 2001-2017
</metadata>
<g transform="translate(0.000000,640.000000) scale(0.100000,-0.100000)"
fill="#000000" stroke="none">
<path d="M6925 6378 c-2 -7 -25 -107 -50 -222 -24 -115 -46 -211 -49 -213 -2
-2 -23 1 -47 6 -50 11 -54 9 -64 -36 -7 -36 -16 -31 99 -56 l60 -13 -47 -23
c-58 -28 -130 -100 -169 -168 -16 -29 -36 -53 -44 -53 -24 0 -86 -36 -133 -76
l-44 -38 43 -18 c23 -10 66 -25 96 -34 30 -8 54 -19 54 -24 0 -5 22 -37 49
-72 46 -60 49 -68 53 -135 7 -125 99 -272 240 -380 125 -97 320 -176 467 -189
73 -7 272 16 361 41 73 21 280 57 580 100 l245 36 168 -12 c92 -6 166 -15 165
-19 -2 -4 -24 -23 -49 -43 -34 -25 -63 -37 -112 -46 -392 -68 -708 -304 -832
-621 -163 -417 61 -874 465 -946 123 -22 241 -4 354 53 94 47 204 171 237 265
11 34 15 37 38 30 14 -4 71 -7 126 -6 111 1 179 21 270 79 61 39 146 128 173
181 47 92 66 225 42 289 -14 38 -32 20 -49 -47 -52 -206 -205 -345 -391 -356
-43 -2 -100 1 -128 7 l-49 12 -6 51 c-6 50 -35 113 -53 113 -5 0 -11 -23 -14
-52 -3 -28 -8 -55 -12 -59 -19 -18 -142 120 -175 195 -45 105 -56 254 -28 366
24 96 83 202 151 273 l62 65 203 -6 c293 -8 468 -49 704 -167 391 -195 672
-562 767 -1003 29 -135 32 -426 5 -558 -36 -182 -33 -176 -154 -255 -199 -131
-357 -310 -458 -518 -93 -191 -124 -316 -132 -526 -8 -227 7 -303 127 -640 76
-216 163 -361 300 -504 434 -451 1105 -527 1625 -184 126 83 297 256 359 363
17 30 17 30 -1 5 -145 -196 -279 -315 -463 -410 -461 -236 -996 -168 -1388
179 -57 50 -173 186 -196 229 -5 9 16 -6 45 -35 162 -155 395 -272 637 -320
107 -21 336 -23 442 -4 259 46 501 172 685 356 97 97 205 248 255 358 43 95
37 96 -11 2 -93 -183 -220 -335 -374 -450 -388 -290 -921 -321 -1340 -78 -86
50 -182 123 -242 185 -44 45 -57 67 -82 143 -34 102 -61 245 -61 322 0 98 61
304 132 448 133 268 374 505 615 605 137 57 214 73 368 74 117 0 153 -3 217
-21 154 -45 260 -106 365 -213 76 -76 91 -107 105 -215 44 -345 -195 -709
-504 -766 -57 -10 -76 -10 -134 4 -102 26 -192 102 -180 153 10 40 83 111 145
141 52 26 64 28 174 27 104 -2 118 0 115 15 -2 9 -28 30 -58 46 -51 28 -62 30
-155 30 -108 -1 -161 -17 -232 -71 -30 -23 -33 -23 -33 -6 0 34 60 140 98 173
52 46 129 78 203 85 78 8 105 20 89 38 -18 23 -96 38 -172 34 -232 -12 -409
-253 -357 -488 11 -48 12 -79 5 -119 -21 -121 29 -266 124 -362 122 -123 302
-166 497 -119 249 59 477 261 576 510 51 129 61 186 61 335 0 167 -17 242 -94
405 -27 58 -60 133 -74 168 -32 83 -79 159 -147 241 l-55 67 70 -20 c89 -24
287 -28 361 -7 158 45 313 173 380 312 87 184 84 366 -7 543 -74 141 -203 245
-360 291 -57 16 -58 17 -89 83 -69 145 -237 272 -409 308 -233 49 -489 -63
-603 -264 l-30 -55 -23 134 c-88 519 -401 929 -889 1165 -220 106 -436 162
-667 171 -229 9 -410 -24 -574 -104 -56 -27 -77 -33 -87 -24 -29 23 -108 43
-252 62 -82 11 -154 24 -158 28 -4 4 23 11 60 14 72 6 103 14 103 27 0 12 -72
37 -170 59 -211 49 -444 154 -595 269 -49 37 -139 105 -199 150 -131 99 -240
154 -372 187 -74 19 -103 31 -114 48 -8 12 -33 42 -55 66 -37 41 -38 44 -15
38 14 -4 42 -10 63 -13 32 -6 37 -4 37 12 0 11 3 29 6 40 5 19 0 22 -40 28
-25 4 -47 10 -50 14 -2 4 18 106 44 227 27 121 46 223 42 226 -7 5 -377 89
-395 89 -4 0 -10 -6 -12 -12z m2840 -1578 c61 -6 166 -24 234 -41 609 -149
1039 -586 1157 -1174 14 -68 18 -135 18 -270 -1 -192 -11 -266 -60 -427 l-27
-86 -53 -7 c-75 -9 -222 -49 -311 -85 -41 -17 -76 -30 -77 -30 -2 0 8 37 21
83 42 145 55 264 50 452 -4 117 -12 200 -26 267 -83 387 -319 735 -646 953
-219 146 -522 252 -776 272 -44 3 -76 9 -72 13 16 16 162 58 234 69 155 23
190 24 334 11z m-1099 -351 c-65 -123 -81 -188 -81 -339 0 -144 9 -191 55
-295 50 -112 140 -211 255 -281 17 -10 32 -19 34 -21 10 -6 -53 -94 -98 -137
-104 -96 -252 -130 -397 -91 -207 56 -354 265 -354 503 1 245 153 485 400 632
50 30 212 101 217 96 2 -1 -13 -31 -31 -67z m3257 -832 c74 -37 156 -108 190
-165 l17 -30 -49 -11 c-206 -44 -382 -226 -413 -429 -16 -101 6 -161 34 -94
48 115 91 194 129 236 76 86 176 140 301 162 36 6 37 5 44 -31 17 -91 -31
-232 -107 -319 -125 -142 -271 -176 -620 -142 -92 9 -201 16 -244 16 -60 0
-76 3 -72 13 20 54 58 187 68 240 10 53 15 64 29 60 15 -4 19 5 24 54 19 151
64 256 149 342 102 104 201 143 349 138 89 -4 105 -7 171 -40z m578 -461 c29
-29 65 -80 86 -124 33 -66 38 -85 41 -166 6 -139 -34 -243 -131 -335 -89 -85
-181 -121 -311 -121 -95 0 -194 23 -403 94 -194 66 -310 88 -478 89 -77 1
-173 -5 -213 -12 -40 -7 -75 -11 -78 -8 -9 9 31 66 51 71 43 12 231 5 406 -15
201 -23 304 -21 416 7 246 60 436 279 450 518 2 45 6 87 9 94 6 20 96 -33 155
-92z m-1514 -563 c-21 -33 -34 -41 -101 -62 -42 -13 -125 -47 -184 -77 -305
-153 -542 -427 -653 -753 -31 -93 -30 -58 2 66 53 203 157 383 313 539 102
102 240 197 354 245 71 30 283 91 290 84 2 -2 -8 -20 -21 -42z m498 -203 c39
-12 99 -37 135 -55 67 -34 170 -105 170 -117 0 -4 -24 3 -52 16 -109 48 -182
60 -353 61 -137 0 -172 -4 -245 -24 -95 -26 -263 -102 -337 -152 -248 -168
-437 -422 -538 -722 -38 -110 -44 -99 -20 37 21 120 69 264 125 376 161 318
411 526 716 594 102 23 306 16 399 -14z m-973 -237 c-96 -112 -199 -294 -248
-439 -60 -181 -66 -226 -73 -564 l-6 -315 -42 85 c-50 100 -63 168 -63 331 0
347 145 673 398 895 40 35 75 64 78 64 3 0 -17 -26 -44 -57z m1608 -920 c-35
-126 -93 -225 -190 -323 -195 -196 -453 -257 -621 -145 -36 24 -104 103 -95
112 2 2 19 -5 37 -16 128 -74 324 -68 491 14 149 73 312 249 373 403 27 66 29
43 5 -45z m-1865 -443 c13 -41 22 -76 20 -78 -2 -2 -17 17 -34 42 -28 40 -31
52 -30 113 1 63 2 65 11 33 6 -19 20 -69 33 -110z"/>
<path d="M5620 5960 c-11 -11 -20 -29 -20 -39 0 -14 -5 -18 -19 -14 -23 6 -71
-37 -71 -62 0 -9 11 -27 25 -41 19 -19 24 -31 18 -51 -10 -43 -65 -113 -93
-119 -184 -41 -296 -92 -446 -206 -60 -45 -149 -113 -199 -150 -153 -116 -385
-220 -595 -269 -98 -22 -170 -47 -170 -59 0 -12 29 -21 97 -27 35 -3 63 -10
63 -14 0 -5 -3 -9 -7 -9 -5 0 -73 -9 -153 -20 -140 -18 -219 -38 -247 -61 -10
-9 -31 -3 -87 24 -164 80 -345 113 -574 104 -231 -9 -447 -65 -667 -171 -488
-236 -801 -646 -889 -1165 l-23 -134 -30 55 c-114 201 -370 313 -603 264 -172
-36 -340 -163 -409 -308 -31 -66 -32 -67 -89 -83 -157 -46 -286 -150 -360
-291 -91 -177 -94 -359 -7 -543 67 -139 222 -267 380 -312 74 -21 272 -17 361
7 l70 20 -55 -67 c-68 -82 -115 -158 -147 -241 -14 -35 -47 -110 -74 -168 -77
-163 -94 -238 -94 -405 0 -149 10 -206 61 -335 99 -249 327 -451 576 -510 195
-47 375 -4 497 119 95 96 145 241 124 362 -7 40 -6 71 5 119 52 235 -125 476
-357 488 -76 4 -154 -11 -172 -34 -16 -18 11 -30 89 -38 74 -7 151 -39 203
-85 38 -33 98 -139 98 -173 0 -17 -3 -17 -33 6 -71 54 -124 70 -232 71 -93 0
-104 -2 -155 -30 -30 -16 -56 -37 -58 -46 -3 -15 11 -17 115 -15 110 1 122 -1
174 -27 62 -30 135 -101 145 -141 12 -51 -78 -127 -180 -153 -58 -14 -77 -14
-134 -4 -309 57 -548 421 -504 766 14 108 29 139 105 215 105 107 211 168 365
213 106 30 320 30 434 -1 320 -86 602 -329 766 -657 71 -144 132 -350 132
-448 0 -77 -27 -220 -61 -322 -25 -76 -38 -98 -82 -143 -60 -62 -156 -135
-242 -185 -419 -243 -952 -212 -1340 78 -154 115 -281 267 -374 450 -48 94
-54 93 -11 -2 50 -110 158 -261 255 -358 184 -184 426 -310 685 -356 106 -19
335 -17 442 4 242 48 475 165 637 320 29 29 50 44 45 35 -23 -43 -139 -179
-196 -229 -392 -347 -927 -415 -1388 -179 -184 95 -318 214 -463 410 -18 25
-18 25 -1 -5 62 -107 233 -280 359 -363 640 -423 1498 -193 1845 494 37 74 81
189 151 398 45 135 62 264 56 436 -8 210 -39 335 -132 526 -101 208 -259 387
-458 518 -121 79 -118 73 -154 255 -27 132 -24 423 5 558 95 441 376 808 767
1003 236 118 411 159 704 167 l203 6 62 -65 c68 -71 127 -177 151 -273 28
-112 17 -261 -28 -366 -33 -75 -156 -213 -175 -195 -4 4 -9 31 -12 59 -3 29
-9 52 -14 52 -18 0 -47 -63 -53 -113 l-6 -51 -49 -12 c-28 -6 -85 -9 -128 -7
-186 11 -339 150 -391 356 -17 67 -35 85 -49 47 -24 -64 -5 -197 42 -289 27
-53 112 -142 173 -181 91 -58 159 -78 270 -79 55 -1 112 2 126 6 23 7 27 4 38
-30 33 -94 143 -218 237 -265 113 -57 231 -75 354 -53 404 72 628 529 465 946
-124 317 -440 553 -832 621 -49 9 -78 21 -112 46 -25 20 -47 39 -49 43 -1 4
73 13 165 19 l168 12 245 -35 c287 -42 491 -78 575 -100 99 -26 294 -49 366
-42 268 24 560 209 665 421 31 63 39 92 42 148 4 67 7 75 53 135 27 35 49 67
49 72 0 5 24 16 54 24 30 9 73 24 96 34 l43 18 -44 38 c-47 40 -109 76 -133
76 -8 0 -28 24 -44 53 -61 108 -157 179 -261 196 -38 6 -56 15 -72 36 -18 22
-28 26 -55 22 -25 -4 -32 -2 -28 8 8 19 -40 65 -66 65 -11 0 -29 -9 -40 -20z
m-2227 -1174 c73 -14 195 -52 210 -66 4 -4 -28 -10 -72 -13 -254 -20 -557
-126 -776 -272 -327 -218 -563 -566 -646 -953 -14 -67 -22 -150 -26 -267 -5
-188 8 -307 50 -452 13 -46 23 -83 21 -83 -1 0 -36 13 -77 30 -89 36 -236 76
-311 85 l-53 7 -27 86 c-49 161 -59 235 -60 427 0 135 4 202 18 270 118 589
548 1024 1158 1174 69 17 166 35 215 40 108 12 278 5 376 -13z m885 -344 c265
-133 441 -395 442 -654 0 -238 -147 -447 -354 -503 -145 -39 -293 -5 -397 91
-45 43 -108 131 -98 137 2 2 18 11 34 21 115 70 205 169 255 281 46 104 55
151 55 295 0 149 -15 213 -78 334 -18 34 -33 64 -35 69 -5 11 91 -28 176 -71z
m-3077 -802 c195 -60 316 -222 345 -463 5 -49 9 -58 24 -54 14 4 19 -7 29 -60
10 -53 48 -186 68 -240 4 -10 -12 -13 -72 -13 -43 0 -152 -7 -244 -16 -349
-34 -495 0 -620 142 -76 87 -124 228 -107 319 7 36 8 37 44 31 125 -22 225
-76 301 -162 38 -42 81 -121 129 -236 28 -67 50 -7 34 94 -31 203 -207 385
-413 429 l-49 11 17 30 c48 81 177 175 269 197 69 16 178 12 245 -9z m-739
-477 c14 -247 202 -466 451 -527 112 -28 215 -30 416 -7 175 20 363 27 406 15
20 -5 60 -62 51 -71 -3 -3 -38 1 -78 8 -40 7 -136 13 -213 12 -168 -1 -284
-23 -478 -89 -209 -71 -308 -94 -403 -94 -130 0 -222 36 -311 121 -97 92 -137
196 -131 335 3 81 8 100 40 166 20 40 58 95 83 120 45 46 143 110 156 103 3
-3 8 -44 11 -92z m1517 -574 c169 -54 321 -148 457 -284 155 -155 260 -334
313 -538 32 -124 33 -159 2 -66 -111 326 -348 600 -653 753 -59 30 -142 64
-184 77 -67 21 -80 29 -100 61 -13 21 -24 40 -24 42 0 6 114 -21 189 -45z
m-209 -199 c163 -46 337 -154 454 -281 166 -179 288 -428 331 -675 24 -136 18
-147 -20 -37 -101 300 -290 554 -538 722 -74 50 -242 126 -337 152 -73 20
-108 24 -245 24 -171 -1 -244 -13 -352 -61 -29 -13 -53 -20 -53 -16 0 13 104
83 170 117 137 68 217 85 385 80 95 -2 150 -9 205 -25z m591 -282 c234 -228
359 -527 359 -857 0 -163 -13 -231 -63 -331 l-42 -85 -6 315 c-7 338 -13 383
-73 564 -49 146 -152 327 -249 440 -69 80 -30 56 74 -46z m-1584 -991 c111
-146 251 -247 405 -291 111 -32 279 -16 367 35 18 11 35 18 37 16 9 -9 -59
-88 -95 -112 -262 -174 -704 80 -810 465 -29 104 -26 106 18 17 21 -42 57
-101 78 -130z m1782 -363 c-35 -52 -46 -53 -25 -3 7 19 22 68 32 109 l19 75 3
-68 c3 -61 0 -71 -29 -113z"/>
<path d="M6074 4786 c-232 -53 -385 -246 -385 -487 0 -93 19 -162 66 -229 103
-149 365 -216 497 -127 43 30 35 43 -25 39 -149 -9 -313 72 -369 182 -29 57
-29 171 1 248 29 76 105 159 179 195 51 25 68 28 162 28 92 0 112 -3 160 -26
63 -30 117 -79 136 -126 24 -56 17 -162 -16 -266 -16 -52 -30 -97 -30 -101 0
-19 33 -1 65 37 49 56 90 139 105 212 7 33 17 63 24 67 6 4 45 8 86 7 86 0
162 -25 234 -76 96 -68 137 -217 88 -325 -74 -167 -361 -271 -514 -186 -78 43
-118 145 -118 306 0 37 -4 62 -11 62 -23 0 -62 -113 -67 -191 -7 -113 16 -178
88 -250 75 -77 141 -102 270 -103 286 -1 530 206 530 448 -1 220 -150 385
-380 418 -74 11 -147 2 -211 -26 -13 -6 -22 4 -41 46 -46 99 -126 168 -243
208 -77 27 -203 34 -281 16z"/>
<path d="M9520 2810 l0 -60 40 0 40 0 0 -70 0 -70 -82 0 c-98 0 -148 -19 -196
-74 -52 -60 -65 -100 -65 -201 0 -98 12 -139 60 -195 67 -80 206 -93 263 -26
11 15 15 14 34 -7 29 -31 84 -41 152 -27 l54 11 0 50 0 49 -40 0 -40 0 0 340
0 340 -110 0 -110 0 0 -60z m71 -336 c14 -8 10 -144 -5 -187 -52 -145 -196
-107 -196 50 0 98 61 160 148 149 24 -3 48 -8 53 -12z"/>
<path d="M3354 2810 c-123 -9 -228 -39 -286 -83 -81 -61 -109 -165 -69 -252
32 -70 79 -96 169 -96 96 0 159 54 177 154 l7 37 -70 0 c-70 0 -71 0 -74 -27
-4 -38 -49 -54 -78 -28 -39 35 -15 109 46 138 35 17 188 41 209 33 11 -4 14
-55 14 -243 1 -131 -3 -262 -8 -291 -10 -63 -48 -109 -98 -118 -33 -6 -33 -6
-33 -65 l0 -59 33 0 c80 2 164 53 204 125 l28 50 3 303 3 302 50 0 49 0 0 65
0 65 -87 -1 c-49 -1 -134 -5 -189 -9z"/>
<path d="M5891 2809 c-177 -13 -290 -62 -343 -147 -18 -29 -23 -52 -23 -102 0
-71 20 -118 65 -152 53 -39 177 -39 229 0 30 22 60 78 68 127 l6 36 -69 -3
c-63 -3 -69 -5 -72 -26 -2 -12 -12 -27 -23 -33 -42 -22 -87 19 -74 69 15 62
79 94 218 108 l67 6 0 -250 0 -251 -52 -3 -53 -3 -3 -52 -3 -53 160 0 161 0 0
55 0 55 -40 0 -40 0 0 162 c0 89 4 158 8 153 5 -6 39 -90 77 -187 l68 -178 53
0 52 0 72 183 c40 100 74 184 76 186 2 2 4 -68 4 -157 l0 -162 -40 0 -40 0 0
-55 0 -55 160 0 160 0 0 55 0 55 -50 0 -50 0 0 250 0 250 50 0 51 0 -3 63 -3
62 -121 3 c-89 2 -124 -1 -131 -10 -5 -7 -47 -105 -93 -218 -46 -113 -86 -209
-90 -213 -4 -4 -49 94 -100 218 l-93 225 -46 -1 c-25 -1 -93 -5 -150 -10z"/>
<path d="M8415 2790 c-11 -12 -19 -36 -19 -55 0 -44 28 -75 69 -75 62 0 97 75
59 128 -20 30 -83 31 -109 2z"/>
<path d="M4955 2672 l-20 -67 -45 -5 -45 -5 -3 -52 -3 -53 45 0 46 0 0 -155
c0 -177 9 -213 62 -245 41 -25 130 -27 188 -4 22 9 40 18 40 20 0 3 -11 27
-25 55 -23 44 -29 49 -48 43 -12 -4 -33 -8 -47 -8 l-25 -1 -3 148 -3 147 61 0
60 0 0 58 0 57 -60 -3 -60 -4 0 71 0 71 -47 0 -48 0 -20 -68z"/>
<path d="M3773 2602 l-103 -3 0 -54 0 -55 39 0 39 0 4 -147 c3 -168 17 -210
77 -250 50 -33 134 -32 214 4 44 20 62 24 65 15 9 -28 63 -44 120 -37 81 10
82 11 82 66 l0 49 -40 0 -40 0 -2 206 -3 206 -100 0 -100 0 -3 -56 -3 -56 36
0 35 0 0 -118 0 -118 -32 -19 c-77 -47 -119 -54 -148 -25 -19 19 -20 33 -20
204 0 102 -3 186 -7 188 -5 2 -54 2 -110 0z"/>
<path d="M4455 2591 c-47 -21 -63 -38 -75 -82 -13 -45 3 -98 38 -132 16 -15
71 -54 123 -85 52 -31 94 -64 94 -72 0 -18 -58 -31 -107 -23 -34 5 -38 9 -38
34 0 29 -1 29 -60 29 l-60 0 0 -79 0 -79 64 -17 c136 -37 296 -1 324 72 21 56
23 72 9 106 -20 46 -42 65 -153 133 -52 31 -97 61 -100 66 -10 16 17 28 61 28
51 0 62 -8 67 -45 3 -29 5 -30 61 -33 l57 -3 0 84 0 84 -58 17 c-79 22 -196
21 -247 -3z"/>
<path d="M6860 2592 l-65 -17 0 -80 0 -80 58 -3 57 -3 0 30 c0 37 4 40 78 47
52 6 62 4 81 -15 11 -11 21 -32 21 -45 0 -22 -3 -23 -93 -28 -104 -6 -138 -19
-185 -72 -70 -80 -47 -204 44 -242 19 -8 56 -14 83 -14 39 0 59 7 99 34 46 31
51 32 55 15 5 -20 62 -49 96 -49 11 0 43 5 71 11 l50 11 0 49 0 49 -44 0 -45
0 -3 159 c-3 174 -7 187 -72 235 -38 29 -193 33 -286 8z m214 -326 c-14 -35
-114 -83 -148 -70 -23 9 -19 50 6 68 30 22 150 23 142 2z"/>
<path d="M7344 2601 c-2 -2 -4 -28 -4 -58 l0 -53 40 0 40 0 0 -150 0 -150 -40
0 -40 0 0 -55 0 -55 150 0 150 0 0 55 0 55 -40 0 -40 0 0 124 0 123 48 18 c26
10 71 19 101 19 l54 1 18 62 c17 61 17 61 -5 67 -51 14 -110 5 -166 -23 l-58
-30 -5 27 -5 27 -97 0 c-53 0 -99 -2 -101 -4z"/>
<path d="M7820 2548 l0 -58 40 0 40 0 0 -150 0 -150 -40 0 -40 0 0 -55 0 -55
145 0 145 0 0 55 0 55 -35 0 -35 0 0 124 0 124 43 17 c23 10 67 18 99 18 l56
0 17 60 c20 71 16 77 -61 77 -37 0 -67 -8 -107 -28 l-56 -29 -8 24 c-8 24 -13
25 -106 26 l-97 2 0 -57z"/>
<path d="M8320 2548 l0 -58 40 0 40 0 0 -150 0 -150 -42 0 -43 0 0 -55 0 -55
158 0 157 0 0 54 0 55 -47 3 -48 3 -5 205 -5 205 -103 0 -102 0 0 -57z"/>
<path d="M8840 2595 c-85 -38 -140 -123 -148 -226 -7 -97 17 -169 76 -228 54
-53 101 -71 189 -71 59 0 162 28 196 54 16 13 16 16 -10 62 -14 27 -27 50 -29
52 -1 2 -16 -4 -33 -13 -41 -21 -129 -37 -164 -29 -37 8 -87 51 -87 75 0 18 9
19 176 19 l177 0 -5 78 c-5 96 -42 171 -102 211 -33 22 -53 26 -120 29 -57 1
-92 -2 -116 -13z m171 -134 c16 -16 29 -38 29 -48 0 -16 -9 -18 -105 -15
l-105 3 16 30 c31 61 118 76 165 30z"/>
<path d="M411 1070 c0 -8 4 -22 9 -30 12 -18 12 -2 0 25 -6 13 -9 15 -9 5z"/>
<path d="M12381 1073 c-1 -6 -4 -20 -7 -30 -5 -17 -5 -17 6 0 6 10 9 23 6 30
-3 9 -5 9 -5 0z"/>
<path d="M440 640 c6 -11 13 -20 16 -20 2 0 0 9 -6 20 -6 11 -13 20 -16 20 -2
0 0 -9 6 -20z"/>
<path d="M12350 640 c-6 -11 -8 -20 -6 -20 3 0 10 9 16 20 6 11 8 20 6 20 -3
0 -10 -9 -16 -20z"/>
</g>
</svg>
