<?xml version="1.0" standalone="no"?>
<!DOCTYPE svg PUBLIC "-//W3C//DTD SVG 20010904//EN"
 "http://www.w3.org/TR/2001/REC-SVG-20010904/DTD/svg10.dtd">
<svg version="1.0" xmlns="http://www.w3.org/2000/svg"
 width="1280.000000pt" height="628.000000pt" viewBox="0 0 1280.000000 628.000000"
 preserveAspectRatio="xMidYMid meet">
<metadata>
Created by potrace 1.15, written by Peter Selinger 2001-2017
</metadata>
<g transform="translate(0.000000,628.000000) scale(0.100000,-0.100000)"
fill="#000000" stroke="none">
<path d="M1105 5248 c-33 -5 -107 -14 -165 -21 -135 -15 -138 -29 -15 -74 50
-18 142 -55 205 -82 63 -27 165 -70 225 -95 312 -130 533 -320 455 -391 -19
-18 -41 -21 -186 -25 -132 -4 -167 -8 -174 -20 -18 -29 18 -56 196 -145 98
-49 233 -127 299 -172 146 -99 288 -169 467 -228 173 -56 294 -81 493 -100
169 -17 333 -40 342 -49 11 -11 -13 -29 -98 -71 -49 -25 -139 -79 -201 -121
-131 -89 -159 -104 -190 -104 -33 0 -56 -16 -42 -30 21 -21 644 -66 776 -56
221 17 524 132 838 320 69 41 217 135 328 210 145 97 212 136 233 136 16 0 29
4 29 9 0 26 -393 315 -595 436 -305 184 -500 256 -846 314 -387 65 -511 102
-762 231 -197 101 -237 113 -237 70 0 -32 23 -71 98 -162 97 -119 103 -129 90
-145 -28 -34 -138 2 -408 132 -329 159 -487 212 -702 235 -116 12 -369 11
-453 -2z"/>
<path d="M11385 5249 c-196 -22 -382 -85 -673 -228 -249 -123 -382 -168 -421
-143 -18 13 -5 36 85 144 78 94 104 135 104 166 0 46 -52 32 -220 -59 -245
-132 -378 -173 -779 -240 -342 -57 -545 -132 -843 -310 -193 -116 -598 -414
-598 -441 0 -4 13 -8 29 -8 20 0 91 -41 242 -143 249 -166 372 -240 524 -317
238 -121 463 -194 636 -206 108 -8 742 34 769 51 17 11 -9 35 -37 35 -32 0
-58 14 -189 102 -60 40 -155 98 -212 127 -63 33 -99 58 -94 63 13 13 153 34
347 53 201 19 323 44 495 101 181 60 310 124 460 225 69 46 206 124 304 174
178 90 214 116 196 145 -7 12 -42 16 -174 20 -143 4 -167 7 -185 24 -28 26
-27 44 9 98 46 69 170 163 310 233 79 40 437 191 553 233 72 26 97 39 97 52 0
15 -13 19 -77 25 -43 4 -121 13 -173 21 -104 15 -357 17 -485 3z"/>
<path d="M5155 4091 c-78 -22 -101 -35 -280 -150 -292 -189 -334 -210 -661
-329 -349 -128 -526 -203 -671 -285 -72 -40 -97 -66 -47 -47 79 30 70 -4 -25
-99 -109 -107 -284 -246 -383 -303 -45 -26 -152 -77 -237 -113 -211 -90 -229
-109 -128 -141 40 -13 104 -18 272 -21 322 -7 453 11 1033 142 292 66 392 76
392 39 0 -8 -26 -39 -57 -69 -31 -30 -54 -57 -51 -61 25 -24 430 227 677 420
145 112 304 272 388 391 153 217 346 352 552 387 39 7 71 15 71 18 0 18 -264
150 -375 188 -158 53 -353 67 -470 33z"/>
<path d="M7465 4095 c-136 -30 -283 -91 -442 -183 -66 -38 -77 -52 -41 -52 41
0 153 -32 225 -65 144 -66 254 -162 367 -320 115 -161 256 -299 471 -461 221
-167 580 -382 602 -361 4 5 -18 33 -50 64 -31 30 -57 62 -57 71 0 29 157 9
471 -61 510 -114 657 -133 969 -124 206 6 278 17 304 46 15 16 15 19 -1 33
-10 9 -90 46 -178 83 -88 37 -194 87 -237 112 -134 80 -413 315 -451 382 -18
30 -18 31 2 31 11 0 31 -4 45 -10 15 -5 26 -6 26 0 0 12 -249 137 -395 198
-66 27 -201 79 -300 115 -359 130 -425 162 -693 336 -197 127 -228 144 -309
165 -74 19 -242 20 -328 1z"/>
<path d="M5645 3206 c-150 -30 -253 -84 -356 -187 -63 -62 -85 -93 -122 -170
-25 -52 -53 -121 -61 -154 -23 -92 -39 -252 -31 -327 6 -63 5 -67 -17 -73 -14
-5 -24 -3 -26 5 -18 54 -90 175 -131 221 -59 66 -114 95 -218 115 -137 26
-244 14 -425 -46 -216 -73 -389 -201 -465 -346 -15 -30 -32 -54 -36 -54 -5 0
-21 8 -35 19 -83 58 -302 133 -440 150 -231 29 -467 -62 -693 -265 -42 -38
-94 -90 -115 -116 l-39 -47 -86 0 c-223 -2 -459 -77 -616 -195 -105 -80 -158
-165 -175 -284 -14 -101 -1 -180 47 -276 150 -302 469 -427 781 -307 l71 28
78 -84 c43 -46 102 -103 131 -125 30 -22 54 -44 54 -47 0 -10 -185 -96 -245
-114 -123 -37 -210 -48 -373 -48 -201 1 -338 26 -590 108 -134 44 -144 46
-160 30 -32 -33 2 -58 175 -131 111 -47 268 -91 399 -111 146 -23 392 -16 509
14 112 30 217 73 315 131 l84 50 82 -35 c141 -61 222 -78 369 -79 105 0 147 4
215 23 97 25 276 99 423 172 54 28 100 49 101 47 2 -2 13 -32 26 -68 71 -202
182 -336 335 -407 72 -32 204 -43 294 -23 252 55 578 335 655 563 75 222 20
490 -139 679 -14 16 -25 33 -25 38 0 9 124 90 137 90 5 0 21 -23 36 -50 53
-95 178 -252 300 -377 195 -200 415 -382 699 -577 l127 -87 108 72 c475 317
859 683 1025 977 17 28 34 52 39 52 14 0 149 -92 149 -101 0 -5 -18 -32 -40
-61 -55 -73 -115 -191 -134 -265 -22 -83 -23 -269 -2 -346 67 -246 347 -510
634 -597 104 -32 241 -26 327 13 155 72 277 221 340 417 10 30 19 56 20 58 1
1 62 -27 136 -62 304 -146 419 -180 604 -179 147 0 228 17 369 78 l82 35 103
-59 c121 -70 279 -125 406 -142 136 -18 374 -6 507 25 138 32 269 77 386 133
95 45 111 65 77 93 -13 11 -40 5 -158 -33 -78 -26 -170 -53 -204 -62 -260 -65
-569 -61 -780 10 -78 26 -208 88 -217 104 -3 4 13 21 35 37 22 15 83 72 134
126 l94 99 41 -21 c99 -50 283 -69 400 -41 200 48 379 220 442 425 30 98 22
210 -21 302 -94 200 -384 346 -721 361 l-115 6 -90 92 c-243 249 -511 366
-765 334 -140 -17 -358 -92 -442 -150 -14 -11 -30 -19 -35 -19 -4 1 -19 23
-32 51 -32 64 -117 158 -195 213 -110 78 -227 129 -400 173 -87 22 -114 25
-196 19 -167 -10 -250 -43 -321 -128 -50 -59 -119 -175 -119 -202 0 -22 -20
-29 -50 -18 -22 8 -23 13 -21 93 8 340 -129 618 -365 741 -233 122 -489 113
-722 -23 -74 -44 -218 -188 -266 -266 -22 -35 -42 -63 -45 -63 -3 0 -22 26
-41 58 -19 31 -78 100 -130 152 -104 105 -192 159 -325 200 -90 27 -236 34
-330 16z m-995 -676 c123 -16 162 -34 223 -100 39 -41 56 -70 61 -97 4 -21 9
-45 12 -54 3 -12 -17 -25 -85 -53 -308 -128 -564 -367 -750 -701 -114 -205
-135 -290 -127 -515 3 -85 7 -168 8 -185 3 -27 -2 -33 -57 -62 -113 -61 -370
-165 -464 -189 -121 -31 -270 -33 -387 -4 -87 20 -164 48 -164 59 0 3 16 17
35 30 56 38 207 202 245 266 59 100 79 175 80 296 0 67 -6 125 -16 160 -49
167 -214 343 -419 446 -69 35 -214 83 -251 83 -13 0 -24 4 -24 9 0 14 116 118
194 172 189 134 370 186 550 159 138 -21 387 -112 411 -150 3 -5 -2 -39 -11
-77 -23 -94 -23 -251 0 -328 38 -129 125 -245 182 -245 64 0 98 75 110 240 11
144 -24 258 -113 367 l-44 54 22 45 c67 139 254 270 479 337 160 48 187 51
300 37z m3860 -9 c151 -34 313 -100 400 -165 66 -50 145 -135 174 -188 l29
-53 -49 -65 c-94 -124 -123 -233 -104 -398 16 -143 47 -202 106 -202 90 0 203
221 204 396 0 28 -7 91 -16 140 -9 49 -17 95 -18 103 -3 36 257 137 418 162
212 33 458 -63 672 -263 35 -33 64 -64 64 -68 0 -4 -20 -11 -45 -14 -233 -35
-518 -240 -615 -442 -42 -86 -53 -152 -48 -268 6 -122 33 -200 102 -303 46
-69 175 -203 229 -238 15 -9 27 -21 27 -25 0 -12 -102 -49 -182 -65 -99 -21
-256 -19 -353 4 -88 22 -284 101 -440 177 -78 39 -100 54 -99 69 1 11 7 67 13
124 14 116 3 267 -25 363 -25 81 -108 241 -192 368 -101 152 -277 330 -417
423 -94 62 -227 132 -295 155 -25 9 -30 16 -30 42 0 47 24 94 75 148 49 53
108 78 214 92 89 12 111 11 201 -9z m-616 -281 c24 -9 26 -14 26 -74 0 -81 16
-204 37 -276 48 -168 182 -335 369 -456 81 -54 218 -124 240 -124 13 0 24 44
15 58 -3 5 -46 37 -96 72 -237 164 -358 299 -419 463 -34 90 -65 287 -46 287
20 0 148 -70 241 -131 118 -79 300 -259 391 -389 81 -115 212 -370 236 -460
12 -47 17 -106 17 -212 0 -81 -3 -150 -7 -154 -10 -9 -136 68 -316 194 -81 57
-192 133 -247 169 -73 48 -362 248 -404 280 -2 1 15 23 38 48 45 49 44 46 35
69 -10 27 -49 18 -102 -24 l-50 -40 -90 58 -90 58 38 85 c50 112 104 276 124
380 24 119 26 129 31 129 2 0 15 -4 29 -10z m-2790 -98 c22 -116 80 -296 130
-406 20 -43 36 -82 36 -86 0 -4 -36 -30 -81 -59 l-81 -51 -48 40 c-53 44 -84
50 -100 20 -9 -17 -4 -27 31 -65 23 -25 40 -47 38 -49 -21 -17 -301 -211 -399
-276 -69 -46 -183 -125 -255 -175 -185 -129 -297 -197 -309 -185 -17 17 -13
267 7 351 47 203 262 542 459 724 112 103 313 235 397 260 23 7 23 7 16 -56
-32 -296 -151 -471 -470 -692 l-90 -63 -3 -49 -3 -50 23 22 c13 11 57 38 98
58 234 117 427 310 491 489 27 77 49 216 49 306 0 76 4 87 35 89 6 1 18 -43
29 -97z m-1212 -211 c20 -40 23 -61 22 -156 -1 -105 -12 -172 -34 -205 -9 -13
-14 -11 -35 13 -35 39 -57 125 -57 222 0 73 16 186 29 208 8 14 51 -33 75 -82z
m5269 22 c19 -92 17 -225 -4 -293 -19 -64 -62 -114 -77 -90 -27 43 -42 221
-27 312 8 44 66 138 86 138 5 0 15 -30 22 -67z m-6801 -138 c0 -3 -9 -24 -21
-46 -65 -129 -80 -340 -36 -509 14 -52 43 -137 66 -188 23 -50 40 -96 37 -101
-24 -38 -259 -64 -369 -41 -132 27 -260 117 -341 239 -94 141 -109 215 -63
314 60 131 224 241 445 298 102 26 282 48 282 34z m8365 -5 c349 -40 629 -230
629 -426 0 -41 -9 -70 -43 -139 -76 -153 -214 -270 -367 -310 -69 -18 -209
-21 -278 -5 -49 11 -116 36 -116 43 0 3 15 38 34 79 50 110 85 228 98 333 10
79 9 108 -5 194 -9 56 -30 133 -46 171 -33 80 -42 75 94 60z m-8138 -15 c195
-41 343 -124 478 -266 79 -84 117 -148 140 -235 25 -95 -5 -200 -90 -319 -51
-71 -177 -193 -257 -249 -50 -34 -58 -37 -79 -25 -44 23 -138 100 -203 165
l-64 65 47 48 c56 58 83 109 89 171 7 73 -13 126 -58 159 -40 29 -165 70 -177
58 -7 -8 8 -13 58 -21 54 -9 117 -60 141 -113 19 -43 19 -47 3 -82 -23 -50
-119 -151 -144 -151 -12 0 -69 149 -92 238 -45 176 -15 389 75 531 30 46 35
47 133 26z m7936 -52 c107 -208 109 -420 4 -670 -16 -40 -33 -73 -37 -73 -15
0 -109 91 -131 127 -27 44 -27 83 1 129 27 42 113 94 158 94 17 0 32 5 32 10
0 14 -18 13 -81 -6 -117 -34 -152 -77 -153 -184 -1 -77 15 -111 86 -186 l50
-53 -74 -73 c-67 -67 -195 -168 -213 -168 -15 0 -142 96 -204 154 -111 106
-191 235 -209 337 -30 171 133 397 380 528 80 42 141 64 239 86 112 24 112 24
152 -52z m-5355 -422 c101 -150 144 -292 121 -399 -16 -80 -36 -127 -87 -207
-106 -166 -344 -347 -526 -400 -87 -25 -214 -18 -289 17 -112 53 -228 192
-277 332 -11 33 -20 62 -20 67 0 4 42 33 93 64 50 31 166 110 257 174 91 65
237 167 325 229 88 61 196 138 240 170 59 44 83 57 93 49 7 -5 39 -49 70 -96z
m2897 -31 c50 -37 133 -95 185 -130 52 -35 172 -118 265 -184 147 -105 231
-161 334 -224 29 -18 25 -48 -23 -147 -63 -133 -141 -217 -256 -275 -56 -29
-177 -38 -259 -20 -167 36 -429 223 -542 386 -46 67 -87 164 -98 232 -20 123
42 295 161 449 l40 53 52 -37 c28 -21 92 -67 141 -103z"/>
</g>
</svg>
