<?xml version="1.0" standalone="no"?>
<!DOCTYPE svg PUBLIC "-//W3C//DTD SVG 20010904//EN"
 "http://www.w3.org/TR/2001/REC-SVG-20010904/DTD/svg10.dtd">
<svg version="1.0" xmlns="http://www.w3.org/2000/svg"
 width="961.000000pt" height="1280.000000pt" viewBox="0 0 961.000000 1280.000000"
 preserveAspectRatio="xMidYMid meet">
<metadata>
Created by potrace 1.15, written by Peter Selinger 2001-2017
</metadata>
<g transform="translate(0.000000,1280.000000) scale(0.100000,-0.100000)"
fill="#000000" stroke="none">
<path d="M4350 12782 c-73 -36 -99 -124 -66 -218 7 -22 17 -58 21 -81 6 -39 4
-45 -27 -76 -18 -18 -63 -50 -101 -71 -37 -20 -74 -47 -81 -59 -42 -65 -80
-726 -43 -740 8 -3 24 -34 37 -69 16 -45 36 -76 68 -107 56 -54 60 -73 69
-287 l6 -161 -119 -11 c-65 -6 -164 -16 -219 -22 -55 -6 -144 -15 -199 -20
-54 -6 -125 -17 -158 -26 -33 -8 -86 -17 -117 -20 -59 -5 -98 -14 -196 -44
-33 -10 -81 -21 -107 -25 -26 -3 -82 -24 -125 -46 -43 -21 -86 -39 -96 -39
-25 0 -95 -42 -133 -79 -22 -22 -33 -44 -37 -76 -4 -25 -14 -56 -23 -70 -10
-16 -14 -34 -10 -51 4 -14 7 -280 6 -590 0 -490 2 -568 15 -594 21 -41 103
-104 197 -151 l78 -39 0 -695 c0 -663 -1 -695 -18 -704 -10 -6 -64 -15 -120
-20 -122 -13 -170 -23 -285 -62 -49 -16 -103 -29 -122 -29 -43 0 -200 -52
-235 -79 -37 -27 -97 -51 -128 -51 -57 0 -231 -133 -233 -178 -2 -54 -9 -86
-28 -122 -40 -77 -19 -144 69 -223 l50 -45 0 -354 c0 -284 -3 -363 -15 -402
-19 -62 -19 -137 0 -200 10 -31 15 -91 15 -163 l0 -114 53 -53 c37 -38 84 -69
162 -108 61 -30 120 -57 133 -60 l22 -6 -2 -717 -3 -717 -59 -25 c-33 -13 -93
-28 -135 -33 -93 -10 -294 -70 -324 -97 -25 -23 -92 -49 -152 -58 -101 -16
-286 -146 -300 -210 -13 -57 -29 -90 -67 -128 -34 -35 -38 -45 -38 -91 0 -58
25 -120 70 -174 l30 -37 0 -490 0 -490 -36 -29 c-25 -20 -82 -43 -178 -72
-520 -158 -857 -332 -1013 -525 -70 -86 -97 -153 -97 -250 -1 -67 3 -83 36
-151 77 -155 270 -306 553 -431 763 -338 2040 -552 3630 -607 1365 -47 2910
81 3925 326 797 192 1281 435 1418 712 33 68 37 84 36 151 -1 141 -74 258
-237 382 -214 162 -588 321 -1038 440 l-126 34 -7 110 c-3 60 -6 293 -7 516
l-1 407 25 43 c37 66 50 115 45 177 -4 49 -9 59 -44 89 -69 60 -74 66 -100
120 -15 34 -40 64 -65 82 -62 46 -201 111 -245 115 -50 5 -115 29 -151 55 -37
28 -258 91 -314 90 -24 -1 -69 7 -99 18 l-55 18 -3 703 -2 703 32 11 c88 31
232 113 287 164 102 94 95 34 87 774 l-7 645 26 49 c34 67 34 144 0 213 -24
47 -68 83 -103 83 -6 0 -30 23 -54 52 -34 41 -61 60 -133 94 -50 23 -112 45
-139 48 -26 2 -76 18 -109 34 -80 38 -158 60 -258 73 -45 5 -107 18 -138 29
-31 10 -82 24 -113 30 l-58 11 0 692 0 692 59 29 c84 41 151 94 190 151 l34
50 -6 543 -5 543 24 42 c43 76 20 177 -48 210 -18 9 -46 30 -63 48 -34 35
-132 86 -185 95 -19 3 -61 17 -93 31 -32 13 -104 33 -160 43 -56 10 -115 23
-131 29 -15 6 -72 16 -125 21 -53 6 -110 15 -127 20 -17 6 -80 15 -140 20 -60
5 -149 14 -198 20 -48 5 -92 8 -97 5 -4 -3 -19 -3 -32 0 -21 6 -27 17 -41 83
-8 42 -23 122 -31 177 -35 226 -104 445 -163 523 -22 29 -31 47 -23 50 63 21
90 117 64 227 -17 73 -46 119 -124 195 l-60 58 31 48 c16 26 30 53 30 60 0 7
12 27 27 44 51 62 39 170 -25 217 -89 65 -218 53 -285 -26 -44 -53 -48 -132
-7 -184 23 -29 71 -157 64 -169 -3 -4 -11 -8 -17 -8 -7 0 -23 -9 -37 -20 -14
-11 -28 -20 -31 -20 -4 0 -12 30 -19 67 -15 80 -39 106 -116 129 -28 8 -66 28
-83 44 -17 17 -38 30 -47 30 -17 0 -13 22 11 70 26 51 47 149 41 184 -12 64
-82 126 -143 126 -15 0 -44 -8 -63 -18z m440 -960 c0 -38 -5 -48 -45 -87 -25
-24 -51 -59 -57 -77 l-12 -33 -12 65 c-10 55 -10 66 3 73 34 20 81 69 93 98
16 39 30 21 30 -39z m-1215 -2956 c189 -31 490 -57 798 -72 l137 -6 0 -530 0
-531 -97 6 c-54 3 -152 1 -218 -4 -66 -5 -185 -10 -265 -13 -80 -3 -167 -9
-195 -15 -27 -5 -98 -11 -157 -13 l-108 -4 0 598 c0 329 3 598 8 598 4 0 48
-7 97 -14z m2455 -597 l0 -601 -57 6 c-32 3 -87 10 -123 15 -36 6 -105 11
-155 11 -49 1 -119 6 -155 11 -36 6 -126 12 -200 14 -74 1 -186 6 -247 10
l-113 8 0 522 0 522 223 7 c285 8 787 53 806 72 2 2 8 4 13 4 4 0 8 -271 8
-601z m-3129 -3078 c57 -10 179 -29 272 -41 l167 -23 -2 -536 -3 -536 -61 -7
c-34 -3 -81 -12 -105 -18 -24 -7 -82 -14 -129 -16 -89 -4 -173 -11 -227 -21
l-33 -5 0 611 c0 336 4 611 8 611 5 0 55 -9 113 -19z m3809 -606 c0 -469 -3
-595 -12 -595 -7 0 -40 5 -73 10 -33 6 -121 14 -195 19 -74 5 -153 14 -175 20
-22 5 -70 13 -107 16 l-68 7 0 518 0 519 43 5 c23 3 123 15 222 26 99 11 214
27 255 34 41 8 83 14 93 15 16 1 17 -34 17 -594z m-2600 490 c91 -3 202 -8
248 -11 l82 -6 0 -473 0 -473 -172 -7 c-95 -3 -237 -7 -315 -9 l-143 -4 0 500
0 501 68 -7 c37 -3 141 -8 232 -11z m1500 -492 l0 -488 -83 -3 c-45 -1 -120 3
-166 9 -47 5 -167 10 -268 11 l-183 0 0 474 0 474 253 3 c138 1 296 3 350 5
l97 2 0 -487z"/>
</g>
</svg>
