<?xml version="1.0" standalone="no"?>
<!DOCTYPE svg PUBLIC "-//W3C//DTD SVG 20010904//EN"
 "http://www.w3.org/TR/2001/REC-SVG-20010904/DTD/svg10.dtd">
<svg version="1.0" xmlns="http://www.w3.org/2000/svg"
 width="1280.000000pt" height="1122.000000pt" viewBox="0 0 1280.000000 1122.000000"
 preserveAspectRatio="xMidYMid meet">
<metadata>
Created by potrace 1.15, written by Peter Selinger 2001-2017
</metadata>
<g transform="translate(0.000000,1122.000000) scale(0.100000,-0.100000)"
fill="#000000" stroke="none">
<path d="M4957 10744 c-4 -4 -29 -9 -55 -10 -59 -2 -120 -32 -156 -74 -30 -37
-29 -23 -31 -253 -1 -98 -6 -182 -11 -187 -5 -4 -41 -13 -80 -18 -122 -17
-243 -93 -285 -179 -19 -40 -23 -64 -23 -144 l0 -96 60 -67 c32 -36 76 -78 97
-91 29 -20 37 -32 37 -54 0 -36 40 -71 79 -71 39 0 54 -17 75 -82 16 -49 18
-78 14 -203 -7 -174 -3 -185 81 -193 61 -6 69 -17 69 -103 -1 -30 2 -63 5 -74
5 -16 -11 -37 -73 -100 -44 -43 -80 -83 -80 -87 0 -4 -8 -8 -17 -8 -27 0 -204
-89 -241 -121 -18 -16 -39 -29 -47 -29 -8 0 -15 -4 -15 -10 0 -15 -50 -37
-101 -45 -36 -5 -49 -13 -58 -31 -6 -13 -16 -24 -23 -24 -7 0 -43 -12 -80 -26
-74 -28 -116 -74 -103 -114 3 -11 -1 -44 -9 -73 -12 -43 -17 -134 -21 -438 -3
-211 -7 -422 -8 -469 -1 -47 4 -131 10 -187 8 -63 10 -148 7 -220 -4 -71 -2
-160 5 -223 7 -58 14 -175 17 -260 4 -153 7 -188 40 -405 18 -124 15 -159 -37
-369 -35 -145 -37 -193 -8 -230 21 -26 25 -27 79 -21 37 4 60 3 64 -4 4 -6 7
-38 7 -72 1 -114 70 -426 113 -509 39 -73 55 -90 91 -90 43 0 48 -9 69 -135
10 -55 24 -134 32 -175 26 -136 54 -363 54 -446 0 -45 6 -119 14 -165 8 -46
17 -122 21 -169 6 -81 22 -208 44 -350 26 -172 36 -406 36 -875 0 -429 -3
-504 -19 -600 -10 -60 -25 -122 -34 -136 -14 -25 -13 -29 7 -62 26 -42 22 -53
-33 -100 -31 -25 -46 -46 -50 -71 -5 -26 -15 -40 -36 -51 -50 -26 -75 -72 -73
-135 3 -47 7 -59 40 -92 21 -21 57 -48 82 -60 44 -21 45 -21 115 -4 39 10 124
44 188 77 123 62 206 85 338 91 l65 3 22 -46 c20 -44 64 -89 86 -89 17 0 130
-61 161 -86 26 -23 34 -24 97 -18 90 9 111 2 143 -46 31 -48 62 -69 117 -81
23 -6 54 -18 69 -29 15 -11 47 -22 71 -26 24 -4 67 -12 96 -20 29 -7 108 -18
175 -24 68 -7 152 -20 188 -31 36 -10 107 -23 158 -29 52 -6 119 -20 150 -31
54 -19 87 -27 213 -49 76 -14 444 -13 510 1 30 6 164 13 299 14 135 2 297 8
360 15 63 6 178 15 255 20 142 8 183 15 310 50 38 10 93 22 120 25 32 5 80 24
135 55 47 26 113 62 147 79 34 17 68 41 75 54 7 13 57 63 111 111 53 49 97 94
97 101 0 7 8 23 19 36 10 13 22 44 26 69 4 25 15 61 25 80 15 29 17 45 9 84
-5 26 -17 59 -27 74 -15 21 -21 53 -26 147 -4 77 -13 143 -26 185 -12 36 -25
90 -30 120 -9 58 -33 147 -94 345 -56 181 -55 167 -10 159 56 -8 133 23 159
66 11 18 37 49 58 69 20 20 37 40 37 45 0 5 -25 72 -56 150 -31 77 -62 162
-70 189 -7 26 -22 63 -33 83 -12 19 -21 42 -21 50 0 8 -15 45 -34 82 -64 128
-136 320 -136 364 0 4 18 19 39 32 l39 25 -3 61 c-7 123 -31 170 -90 170 -37
0 -55 15 -55 47 0 37 27 93 45 93 11 0 14 6 9 24 -4 16 3 35 21 62 22 32 26
47 22 84 -8 72 -26 141 -46 179 -58 106 -82 165 -101 244 -17 69 -19 91 -10
102 7 8 17 15 23 15 15 0 117 70 117 80 0 26 -32 125 -45 140 -8 9 -28 57 -44
107 -16 49 -34 99 -39 109 -6 10 -20 53 -33 94 -12 41 -32 91 -44 111 -13 20
-41 78 -64 130 -22 52 -52 119 -67 149 -15 30 -35 79 -45 108 -25 73 -81 162
-119 190 -56 42 -117 137 -147 229 -27 84 -30 89 -158 226 -71 77 -151 156
-176 176 -25 20 -88 70 -140 112 -54 43 -125 90 -166 109 -69 31 -73 35 -73
65 0 18 6 37 13 42 6 6 61 14 120 17 92 6 122 13 189 41 78 33 170 95 215 145
26 29 30 77 8 106 -9 13 -14 44 -15 94 0 47 -5 83 -14 95 -18 27 -44 108 -77
240 -15 61 -33 124 -40 142 -12 30 -11 35 26 94 36 58 37 64 26 96 -11 30 -11
36 3 46 30 22 30 103 2 190 -14 43 -26 82 -26 88 0 22 -72 175 -93 198 -12 13
-53 48 -90 78 -54 44 -74 54 -93 49 -13 -3 -35 -9 -47 -12 -21 -5 -26 1 -45
44 -12 28 -22 56 -22 62 0 27 -48 99 -101 153 -72 71 -86 111 -64 183 25 83
28 162 11 262 -9 50 -16 121 -16 157 0 38 -7 82 -16 103 -47 112 -65 175 -59
210 5 33 1 44 -35 91 -22 30 -40 64 -40 76 0 14 -21 42 -54 74 -59 55 -93 64
-134 35 -25 -17 -52 -13 -52 9 0 7 -10 23 -22 35 -21 19 -27 19 -71 9 -43 -9
-53 -8 -94 12 -56 27 -95 21 -125 -20 -15 -19 -39 -34 -74 -44 -35 -10 -58
-23 -65 -38 -7 -12 -35 -47 -63 -78 -83 -93 -124 -219 -72 -219 19 0 27 -38
17 -82 -6 -27 -5 -42 6 -57 8 -12 11 -26 7 -32 -14 -24 -31 -141 -29 -206 2
-58 8 -80 43 -148 50 -94 54 -151 20 -242 -25 -68 -57 -114 -112 -164 -35 -32
-40 -41 -47 -102 -9 -77 -32 -127 -57 -127 -22 0 -74 -63 -131 -157 -46 -78
-60 -123 -61 -191 0 -33 -9 -57 -35 -96 -30 -46 -35 -61 -35 -115 0 -33 -4
-61 -9 -61 -25 0 -61 21 -61 36 0 9 -8 31 -19 48 -10 17 -28 74 -40 126 -41
172 -61 239 -95 312 -43 93 -67 119 -109 116 -18 -1 -41 3 -52 9 -11 5 -63 18
-115 28 -80 16 -103 25 -144 57 -27 21 -57 38 -67 38 -10 0 -57 16 -103 35
-47 19 -96 35 -110 35 -28 0 -96 42 -110 68 -6 9 -9 50 -7 89 2 54 -2 80 -14
101 -16 26 -16 32 -1 82 11 36 13 57 6 64 -16 16 -12 33 20 69 16 19 47 74 69
121 21 48 42 91 47 95 5 5 34 16 64 25 133 42 253 117 306 192 28 39 34 56 34
100 0 118 -78 212 -258 311 -64 35 -82 49 -77 62 124 323 125 378 3 481 -84
73 -112 89 -195 116 -79 26 -260 45 -276 28z m2967 -2976 c11 -18 36 -137 36
-172 0 -3 -9 -6 -20 -6 -22 0 -24 8 -10 44 7 19 6 29 -6 41 -18 18 -26 19 -41
4 -17 -17 -43 -3 -43 21 0 26 18 61 39 77 22 17 29 16 45 -9z m-2051 -256 c9
-9 19 -42 23 -72 4 -30 15 -77 25 -105 27 -72 26 -93 -7 -87 -14 2 -50 -1 -78
-8 -72 -17 -92 -5 -100 57 -10 72 8 181 35 209 27 29 79 32 102 6z m2110 -125
c9 -101 0 -145 -38 -192 -25 -30 -46 -44 -89 -58 -86 -26 -101 -23 -114 20
-14 46 -8 58 79 150 38 40 80 91 94 113 14 23 33 40 44 40 15 0 19 -11 24 -73z
m-1462 -94 c41 -20 139 -103 139 -117 1 -6 15 -20 33 -31 49 -31 57 -57 57
-188 0 -82 4 -124 14 -140 20 -33 27 -82 13 -100 -7 -8 -41 -36 -77 -62 -110
-79 -320 -273 -320 -296 0 -6 -15 -32 -33 -58 -31 -41 -72 -112 -160 -269 -16
-30 -36 -56 -43 -59 -8 -3 -14 -15 -14 -28 0 -12 -11 -48 -25 -79 -14 -31 -25
-63 -25 -70 0 -21 -30 -29 -30 -8 0 9 -7 26 -15 36 -8 11 -15 28 -15 38 0 9
-8 22 -19 27 -28 16 -32 60 -10 111 17 37 19 58 14 119 -3 40 -11 83 -17 94
-6 12 -17 53 -24 91 -12 60 -12 73 1 92 15 24 67 61 149 108 126 73 305 234
372 335 27 41 39 104 35 186 -5 111 -11 169 -25 218 -22 79 -24 74 25 50z"/>
<path d="M9400 1833 c0 -4 5 -15 10 -23 8 -13 10 -13 10 2 0 9 -4 20 -10 23
-5 3 -10 3 -10 -2z"/>
</g>
</svg>
