<?xml version="1.0" standalone="no"?>
<!DOCTYPE svg PUBLIC "-//W3C//DTD SVG 20010904//EN"
 "http://www.w3.org/TR/2001/REC-SVG-20010904/DTD/svg10.dtd">
<svg version="1.0" xmlns="http://www.w3.org/2000/svg"
 width="1280.000000pt" height="1069.000000pt" viewBox="0 0 1280.000000 1069.000000"
 preserveAspectRatio="xMidYMid meet">
<metadata>
Created by potrace 1.15, written by Peter Selinger 2001-2017
</metadata>
<g transform="translate(0.000000,1069.000000) scale(0.100000,-0.100000)"
fill="#000000" stroke="none">
<path d="M5601 10679 c-228 -45 -456 -214 -629 -467 -90 -131 -118 -197 -142
-337 -19 -111 -34 -179 -46 -214 -6 -17 -34 6 -76 64 -41 57 -200 172 -261
190 -57 17 -185 19 -327 5 -82 -8 -106 -15 -185 -54 -214 -107 -302 -221 -325
-425 -15 -132 0 -193 73 -301 87 -129 169 -197 271 -226 163 -46 366 40 366
155 0 68 -29 90 -128 100 -71 7 -88 13 -112 36 -61 58 -84 150 -58 226 30 89
84 138 206 190 71 29 72 29 164 18 116 -14 141 -23 178 -65 33 -38 49 -87 81
-242 27 -131 20 -180 -47 -322 -82 -174 -180 -270 -316 -311 -59 -18 -87 -21
-176 -17 -125 6 -210 33 -337 107 -100 58 -262 216 -329 321 -26 41 -127 224
-225 406 -101 190 -196 354 -221 385 -55 64 -205 191 -318 266 -157 105 -344
183 -537 225 -37 8 -130 12 -240 12 -148 0 -198 -4 -284 -22 -218 -48 -466
-150 -666 -277 -289 -183 -645 -510 -757 -696 -81 -134 -145 -345 -182 -600
-22 -145 -21 -160 18 -351 33 -158 37 -169 79 -226 24 -33 65 -108 91 -166 53
-123 57 -129 192 -307 117 -156 179 -216 260 -257 150 -75 393 -147 603 -177
150 -22 281 -16 436 19 294 68 475 156 612 298 71 73 186 229 227 308 64 122
126 381 126 526 0 61 -10 105 -64 278 -35 113 -75 225 -89 248 -52 87 -159
197 -260 266 -104 72 -180 98 -340 116 l-122 14 -80 -35 c-44 -19 -103 -44
-132 -55 -70 -26 -132 -96 -188 -212 -61 -126 -82 -235 -65 -330 8 -39 13 -81
12 -93 -1 -16 21 -39 86 -91 116 -92 163 -116 232 -116 105 -1 245 93 291 196
21 46 24 68 23 166 0 61 2 112 4 112 3 0 42 -25 88 -56 132 -87 181 -167 206
-338 10 -73 10 -95 -5 -162 -29 -136 -108 -271 -200 -342 -48 -38 -173 -102
-199 -102 -9 0 -54 -12 -98 -26 -45 -14 -87 -23 -93 -21 -18 7 -59 -11 -52
-22 6 -10 -16 -15 -109 -25 -66 -8 -171 10 -226 39 -25 13 -65 26 -88 28 -78
9 -315 169 -442 298 -251 254 -326 767 -160 1100 58 117 180 262 248 296 22
10 54 36 72 56 89 102 441 282 670 343 97 25 380 23 514 -4 251 -52 591 -302
765 -562 180 -269 354 -753 427 -1185 14 -80 15 -110 6 -153 -10 -47 -9 -56
10 -88 32 -54 36 -164 10 -251 -12 -38 -30 -116 -42 -174 -23 -118 -57 -195
-129 -291 -114 -151 -216 -212 -441 -266 -723 -172 -1163 -367 -1401 -620
-132 -140 -230 -402 -216 -575 21 -253 305 -476 544 -428 220 44 353 232 341
481 -8 169 -80 260 -204 260 -107 0 -153 -57 -154 -189 l0 -73 27 6 c65 16 82
17 102 6 31 -16 61 -69 61 -106 0 -77 -100 -153 -201 -154 -112 0 -112 0 -142
104 -32 111 -34 181 -6 267 39 121 84 192 182 286 221 213 459 344 755 414 91
22 212 39 212 29 0 -3 -22 -36 -50 -74 -86 -118 -105 -167 -105 -271 0 -80 3
-97 32 -157 21 -45 56 -93 110 -148 123 -130 250 -205 394 -236 161 -34 371
13 549 124 80 50 193 169 231 244 29 55 33 75 37 159 6 147 -34 263 -126 362
-89 95 -196 121 -299 73 -97 -46 -253 -229 -253 -300 0 -19 -5 -19 104 0 23 4
45 0 72 -14 66 -34 78 -54 81 -140 l3 -77 -71 -67 -72 -67 -48 19 c-221 84
-349 269 -304 442 39 155 122 222 430 348 256 105 328 156 392 276 51 97 94
247 100 351 11 173 -22 299 -153 599 -46 105 -87 206 -90 224 l-7 32 73 -56
c87 -68 176 -118 256 -147 65 -24 212 -31 338 -16 l68 8 -56 -63 c-65 -72
-161 -209 -200 -285 -117 -232 -126 -464 -27 -661 38 -76 140 -212 183 -244
18 -13 112 -67 208 -119 212 -115 281 -173 337 -286 32 -64 37 -85 37 -142 -1
-108 -48 -175 -159 -227 -79 -37 -207 -26 -264 22 -57 47 -47 180 16 237 68
60 173 25 173 -59 0 -65 68 -74 108 -14 32 47 28 139 -7 189 -39 54 -136 111
-188 111 -115 0 -188 -48 -246 -161 -23 -47 -27 -66 -27 -142 0 -102 13 -135
85 -215 l46 -51 -38 -9 c-21 -5 -63 -15 -93 -21 -71 -15 -143 -56 -218 -126
-73 -68 -115 -131 -137 -209 -31 -107 -4 -217 72 -293 51 -51 105 -76 175 -81
48 -4 67 0 120 25 118 55 170 119 170 205 0 127 -116 223 -211 174 -52 -28
-68 -107 -28 -144 29 -27 33 -27 40 -2 7 28 43 25 63 -6 16 -24 16 -27 -3 -52
-36 -49 -81 -72 -140 -72 -97 0 -152 41 -168 127 -10 55 19 134 69 190 76 84
201 140 378 168 315 50 391 81 547 221 34 30 52 41 47 29 -48 -118 -26 -223
71 -350 45 -58 101 -83 204 -92 99 -8 172 16 231 77 75 78 95 173 58 273 -40
107 -128 152 -222 112 -66 -27 -94 -146 -43 -179 52 -34 117 -6 119 52 0 18 2
32 4 32 18 0 43 -28 57 -64 16 -42 16 -46 -3 -89 -23 -51 -49 -68 -134 -87
-49 -11 -62 -11 -98 4 -102 41 -160 123 -160 228 0 95 33 147 130 210 113 72
218 75 319 7 33 -22 73 -60 90 -85 71 -108 123 -326 100 -421 -23 -93 -52
-115 -208 -158 -109 -30 -221 -85 -256 -127 -24 -28 -45 -85 -45 -121 0 -31
29 -76 60 -92 45 -23 78 -19 111 15 26 26 30 36 27 76 -3 54 -26 77 -55 58
-26 -16 -29 -54 -5 -54 27 0 38 -31 16 -47 -44 -32 -82 7 -68 70 14 67 122
148 219 166 49 9 52 6 30 -23 -51 -68 32 -176 135 -176 117 0 192 98 145 189
-24 48 -59 53 -104 15 -37 -30 -40 -51 -8 -56 27 -4 36 -48 13 -67 -30 -25
-96 33 -96 84 0 26 47 68 111 99 107 52 132 138 76 260 -34 74 -34 82 2 55 36
-26 115 -36 163 -20 67 22 127 132 152 279 18 103 39 153 84 195 64 61 152 36
152 -42 0 -37 -23 -71 -48 -71 -18 0 -26 22 -11 31 11 8 10 12 -5 24 -26 20
-32 19 -56 -5 -27 -27 -25 -46 9 -81 35 -35 77 -38 115 -8 104 82 51 239 -80
239 -88 0 -180 -82 -204 -180 -7 -28 -14 -50 -17 -50 -2 0 -18 14 -35 30 -24
24 -38 30 -75 30 -53 0 -106 -23 -133 -58 -63 -79 35 -220 116 -167 29 19 28
48 -1 53 -76 14 -49 107 30 105 46 -1 50 -6 65 -57 11 -41 10 -49 -10 -91 -27
-56 -67 -79 -123 -72 -68 9 -115 53 -178 167 -68 121 -92 148 -172 191 -149
79 -327 31 -486 -131 l-60 -62 14 45 c7 24 16 73 20 108 8 81 -9 138 -64 219
-23 33 -39 60 -36 60 2 0 51 -21 107 -46 184 -81 283 -94 405 -50 93 34 136
82 188 211 64 160 117 215 205 215 73 0 141 -52 175 -134 15 -34 14 -36 -16
-71 -26 -30 -37 -35 -74 -35 -53 0 -78 31 -73 88 3 34 1 37 -22 34 -38 -5
-127 -100 -135 -145 -21 -111 146 -211 278 -168 50 17 132 103 170 180 29 58
32 75 32 151 0 73 -4 92 -27 136 -33 63 -110 144 -160 167 -64 30 -127 21
-201 -30 -20 -14 -40 -23 -44 -20 -12 13 36 179 76 260 54 112 147 219 224
257 80 40 115 45 181 26 l56 -17 0 -45 c0 -51 -24 -101 -53 -110 -10 -3 -29 2
-43 11 -20 13 -25 23 -22 48 3 30 1 32 -33 35 -93 8 -125 -109 -41 -152 77
-39 181 -25 245 33 22 20 46 50 54 68 17 42 17 115 -1 157 -22 52 -83 113
-132 132 -82 31 -214 2 -309 -69 -123 -92 -232 -312 -310 -629 -19 -76 -41
-151 -50 -168 -24 -47 -83 -108 -132 -137 -87 -51 -307 -86 -328 -53 -3 4 -24
5 -49 3 -83 -10 -420 90 -565 167 -132 71 -273 222 -322 347 -20 50 -23 76
-24 188 0 128 1 131 37 215 55 131 100 199 185 287 96 99 151 124 289 131 204
10 340 -59 455 -232 22 -32 42 -70 45 -85 3 -14 12 -38 20 -53 14 -27 20 -149
7 -162 -4 -3 -8 -14 -9 -24 -4 -33 -31 -117 -47 -148 -23 -44 -87 -98 -140
-119 -36 -13 -65 -16 -123 -13 -85 6 -109 18 -163 89 l-34 44 66 5 c102 8 162
63 162 149 0 41 -6 56 -41 101 l-41 53 -70 4 c-182 11 -317 -121 -299 -293 8
-81 35 -140 93 -204 58 -65 92 -84 208 -120 114 -35 173 -37 278 -11 192 50
325 171 381 350 51 160 55 247 20 398 -21 91 -60 191 -90 230 -38 50 -169 150
-248 190 -38 19 -81 43 -95 53 -14 10 -64 26 -111 36 -77 15 -93 16 -172 2
-59 -10 -85 -11 -79 -4 289 369 338 485 410 976 49 334 83 466 171 645 164
338 460 504 695 389 104 -51 151 -132 162 -274 10 -135 -40 -245 -144 -320
-55 -39 -56 -39 -92 -24 -58 24 -82 53 -79 93 3 32 7 37 42 46 64 18 68 38 17
82 -62 54 -80 62 -131 62 -83 1 -173 -60 -206 -138 -22 -51 -15 -143 16 -205
34 -66 125 -149 197 -177 83 -33 247 -34 315 -2 118 54 272 261 313 420 102
389 -285 764 -704 682z"/>
<path d="M6942 10675 c-316 -72 -523 -386 -447 -678 41 -159 195 -366 313
-420 68 -32 232 -31 314 2 163 64 268 253 213 384 -32 76 -122 137 -205 136
-51 0 -69 -8 -131 -62 -51 -44 -47 -64 17 -82 35 -9 39 -14 42 -46 3 -40 -21
-69 -79 -93 -36 -15 -37 -15 -92 24 -104 75 -154 185 -144 320 11 142 58 223
162 274 238 116 542 -59 705 -407 79 -168 114 -306 161 -627 72 -491 121 -607
410 -976 6 -7 -20 -6 -79 4 -79 14 -95 13 -172 -2 -47 -10 -97 -26 -111 -36
-14 -10 -54 -32 -90 -50 -69 -35 -159 -99 -227 -164 -90 -85 -160 -361 -132
-516 33 -180 96 -303 197 -382 76 -59 128 -85 220 -109 105 -26 164 -24 278
11 116 36 150 55 208 120 58 64 85 123 93 203 18 172 -118 305 -299 294 l-70
-4 -41 -53 c-35 -45 -41 -60 -41 -101 0 -86 60 -141 162 -149 l66 -5 -34 -44
c-54 -71 -78 -83 -163 -89 -58 -3 -87 0 -123 13 -53 21 -117 75 -140 119 -16
31 -43 115 -47 148 -1 10 -5 21 -9 24 -13 13 -7 135 7 162 8 15 17 39 20 53 3
15 23 53 45 85 115 173 251 242 455 232 138 -7 193 -32 289 -131 86 -89 131
-158 185 -287 30 -72 36 -99 40 -181 7 -163 -22 -251 -127 -381 -65 -81 -152
-153 -236 -195 -147 -75 -472 -169 -551 -160 -25 2 -46 1 -49 -3 -12 -20 -88
-19 -182 3 -112 27 -148 44 -204 94 -61 55 -86 107 -123 259 -79 319 -187 538
-311 631 -95 71 -227 100 -309 69 -49 -19 -110 -80 -132 -132 -18 -42 -18
-115 -1 -157 44 -103 194 -154 299 -101 82 42 51 160 -40 152 -35 -3 -37 -5
-34 -35 3 -25 -2 -35 -22 -48 -14 -9 -33 -14 -43 -11 -29 9 -53 59 -53 110 l0
45 56 17 c66 19 101 14 181 -26 77 -38 170 -145 224 -257 40 -81 88 -247 76
-260 -4 -3 -24 6 -44 20 -74 51 -137 60 -201 30 -50 -23 -127 -104 -160 -167
-23 -44 -27 -63 -27 -136 0 -76 3 -93 32 -151 38 -77 120 -163 170 -180 132
-43 299 57 278 168 -8 45 -97 140 -135 145 -23 3 -25 0 -22 -29 2 -17 -4 -46
-13 -62 -14 -27 -21 -31 -59 -31 -38 0 -48 5 -75 35 -30 35 -31 37 -16 71 34
82 102 134 175 134 88 0 140 -55 205 -215 52 -128 95 -177 188 -211 122 -44
221 -31 405 50 56 25 105 46 107 46 3 0 -13 -27 -36 -60 -55 -81 -72 -138 -64
-219 4 -35 13 -84 20 -108 l14 -45 -60 62 c-159 162 -337 210 -486 131 -80
-43 -104 -70 -172 -191 -63 -114 -110 -158 -178 -167 -56 -7 -96 16 -123 72
-20 42 -21 50 -10 91 15 51 19 56 65 57 79 2 106 -91 30 -105 -29 -5 -30 -34
-1 -53 81 -53 179 88 116 167 -27 35 -80 58 -133 58 -37 0 -51 -6 -75 -30 -17
-17 -33 -30 -35 -30 -3 0 -10 22 -17 50 -24 98 -116 180 -204 180 -131 0 -184
-157 -80 -239 38 -30 80 -27 115 8 34 35 36 54 9 81 -24 24 -30 25 -56 5 -15
-12 -16 -16 -5 -24 15 -10 7 -31 -13 -31 -23 0 -46 36 -46 73 0 76 89 100 152
40 45 -42 66 -92 84 -195 25 -147 85 -257 152 -279 48 -16 127 -6 163 20 16
12 29 19 29 16 0 -3 -12 -34 -27 -68 -55 -129 -31 -211 76 -263 64 -31 111
-73 111 -99 0 -51 -66 -109 -96 -84 -23 19 -14 63 14 67 31 5 28 26 -9 56 -45
38 -80 33 -104 -15 -47 -91 28 -189 145 -189 103 0 186 108 135 176 -22 29
-19 32 30 23 97 -18 205 -99 219 -166 14 -63 -24 -102 -68 -70 -22 16 -11 47
16 47 24 0 21 38 -4 54 -30 19 -53 -4 -56 -58 -3 -40 1 -50 27 -76 47 -47 124
-33 156 30 19 37 19 55 -1 113 -26 78 -119 137 -286 183 -155 42 -184 64 -207
157 -23 95 29 313 100 421 17 25 57 63 90 85 101 68 206 65 319 -7 97 -63 130
-115 130 -210 0 -105 -58 -187 -160 -228 -36 -15 -49 -15 -98 -4 -84 18 -111
36 -133 85 -23 51 -17 93 17 130 30 33 39 32 40 -7 2 -58 67 -86 119 -52 51
33 23 152 -43 179 -94 40 -182 -5 -222 -112 -37 -100 -17 -195 58 -273 59 -61
132 -85 231 -77 103 9 159 34 204 92 97 127 119 232 71 350 -5 12 13 1 47 -29
156 -140 232 -171 547 -221 278 -44 443 -166 446 -329 1 -100 -58 -156 -165
-156 -61 0 -105 22 -142 72 -19 25 -19 28 -3 52 20 31 56 34 63 6 7 -26 15
-25 41 3 38 40 22 116 -29 143 -84 43 -188 -26 -210 -140 -18 -93 36 -172 157
-232 64 -32 80 -36 131 -32 182 14 301 192 248 374 -22 78 -64 141 -137 209
-75 70 -147 111 -218 126 -30 6 -72 16 -93 21 l-38 9 46 51 c72 80 85 113 85
215 0 76 -4 95 -27 142 -58 113 -131 161 -246 161 -52 0 -149 -57 -188 -111
-35 -50 -39 -142 -7 -189 40 -60 108 -51 108 14 0 84 105 119 173 59 63 -57
73 -190 16 -237 -31 -26 -105 -46 -172 -46 -48 0 -126 34 -175 75 -123 104
-96 305 61 451 46 43 110 85 237 153 96 52 190 106 208 119 46 35 149 175 188
256 93 193 81 423 -32 648 -39 77 -135 214 -200 286 l-56 63 68 -8 c126 -15
273 -8 338 16 80 29 169 79 256 147 l73 56 -7 -32 c-3 -18 -44 -119 -90 -224
-46 -105 -95 -227 -109 -271 -59 -189 -61 -350 -7 -520 75 -233 140 -303 372
-400 253 -106 286 -121 354 -167 196 -131 224 -351 67 -519 -53 -56 -121 -102
-200 -134 l-56 -23 -63 51 c-34 29 -67 63 -73 77 -18 41 -9 155 14 180 33 37
94 63 131 56 109 -19 104 -19 104 0 0 71 -156 254 -253 300 -103 48 -210 22
-299 -73 -92 -99 -132 -215 -126 -362 4 -84 8 -104 38 -161 59 -117 199 -238
348 -304 313 -138 582 -81 825 174 54 55 89 103 110 148 29 60 32 77 32 157 0
104 -19 153 -105 271 -28 38 -50 71 -50 74 0 10 121 -7 212 -29 204 -49 432
-151 573 -258 143 -108 267 -233 308 -311 82 -157 94 -260 48 -410 -27 -85
-38 -92 -134 -92 -146 1 -247 119 -187 217 32 54 54 59 143 37 l27 -6 0 73
c-1 140 -52 196 -171 187 -66 -5 -100 -25 -137 -78 -71 -105 -69 -308 5 -453
14 -28 47 -72 74 -98 169 -165 424 -152 609 30 96 94 150 210 150 324 0 113
-64 315 -141 443 -74 122 -268 274 -495 388 -268 133 -520 217 -990 330 -79
19 -171 48 -207 66 -81 39 -168 117 -236 209 -69 92 -98 161 -122 282 -11 57
-29 134 -41 172 -26 87 -22 197 10 251 19 32 20 41 10 90 -10 45 -9 72 5 153
44 249 119 512 222 778 124 322 284 549 510 727 265 207 412 260 735 260 201
1 235 -6 426 -82 225 -90 416 -199 484 -277 18 -20 50 -46 72 -56 80 -40 220
-219 271 -347 53 -134 61 -184 61 -360 0 -136 -4 -180 -22 -253 -47 -190 -124
-339 -226 -441 -127 -127 -362 -284 -438 -293 -23 -2 -63 -15 -88 -28 -55 -29
-160 -47 -226 -39 -93 10 -115 15 -109 25 7 11 -34 29 -52 22 -6 -2 -48 7 -93
21 -44 14 -89 26 -98 26 -26 0 -151 64 -199 102 -92 71 -171 206 -200 342 -15
67 -15 89 -5 162 25 171 74 251 206 338 46 31 85 56 88 56 2 0 4 -51 4 -112
-1 -98 2 -120 23 -166 46 -103 186 -197 291 -196 69 0 116 24 232 116 72 57
87 73 86 96 0 15 5 53 12 85 20 96 -9 229 -78 360 -52 100 -111 161 -180 187
-31 12 -91 36 -132 55 l-75 34 -122 -15 c-160 -18 -236 -44 -340 -116 -101
-69 -208 -179 -260 -266 -14 -23 -54 -135 -89 -248 -56 -179 -64 -216 -64
-284 0 -141 62 -399 126 -520 41 -79 156 -235 227 -308 137 -142 318 -230 612
-298 154 -35 286 -41 431 -20 223 33 466 105 615 182 84 44 142 104 282 292
90 121 124 177 162 263 26 61 67 137 92 170 42 58 46 69 79 227 39 191 40 206
18 351 -36 251 -100 463 -181 600 -71 119 -299 351 -518 526 -198 159 -486
320 -696 389 -195 64 -292 80 -494 80 -110 0 -203 -4 -240 -12 -193 -42 -380
-120 -537 -225 -113 -75 -263 -202 -318 -266 -25 -31 -120 -195 -221 -385 -98
-182 -199 -365 -225 -406 -67 -105 -229 -263 -329 -321 -127 -74 -212 -101
-337 -107 -89 -4 -117 -1 -176 17 -136 41 -234 137 -316 311 -67 142 -74 191
-47 322 32 155 48 204 81 242 37 42 62 51 178 65 92 11 93 11 164 -18 122 -52
176 -101 206 -190 26 -76 3 -168 -58 -226 -24 -23 -41 -29 -112 -36 -71 -7
-86 -12 -105 -34 -79 -90 43 -220 218 -233 155 -11 276 62 398 241 61 89 74
133 74 233 -2 197 -59 313 -208 420 -108 77 -200 114 -307 124 -157 16 -281
12 -336 -8 -48 -18 -232 -146 -232 -161 0 -16 -83 -102 -90 -94 -10 11 -36
125 -55 243 -19 113 -51 186 -137 312 -117 171 -284 326 -433 401 -133 67
-320 93 -453 62z"/>
<path d="M5204 5286 c-26 -26 -34 -42 -33 -67 3 -121 96 -196 322 -257 128
-35 160 -59 183 -140 37 -125 -41 -389 -142 -482 -63 -58 -115 -80 -194 -80
-76 0 -144 28 -216 87 -67 54 -87 100 -82 188 3 58 9 80 31 113 34 52 98 99
144 108 49 9 150 -15 184 -43 55 -47 58 -126 7 -180 -29 -31 -35 -29 -35 9 0
22 -8 38 -27 55 -33 28 -42 28 -83 3 -29 -17 -33 -25 -33 -63 0 -91 80 -151
167 -128 122 33 179 202 112 332 -63 124 -202 171 -367 124 -71 -20 -117 -64
-174 -164 -26 -47 -31 -67 -32 -126 -1 -38 3 -85 8 -104 l8 -34 -58 50 c-157
134 -219 158 -532 208 -177 28 -302 84 -378 168 -50 56 -79 135 -69 190 16 86
71 127 168 127 59 0 104 -23 140 -72 19 -25 19 -28 3 -52 -20 -31 -56 -34 -63
-6 -7 26 -15 25 -41 -3 -39 -41 -20 -121 33 -145 95 -43 207 52 207 177 0 59
-20 99 -71 143 -70 60 -127 83 -206 83 -114 0 -201 -57 -247 -163 -60 -136
-15 -289 124 -417 75 -70 147 -111 218 -126 30 -6 72 -16 93 -21 l38 -9 -46
-51 c-72 -80 -85 -113 -85 -215 0 -76 4 -95 27 -142 58 -113 131 -161 246
-161 52 0 149 57 188 111 35 50 39 142 7 189 -40 60 -108 51 -108 -14 0 -84
-105 -119 -173 -59 -63 57 -73 190 -16 237 57 48 185 59 264 22 111 -52 158
-119 159 -227 0 -57 -5 -78 -37 -142 -56 -113 -125 -171 -337 -286 -96 -52
-190 -106 -208 -119 -43 -32 -145 -168 -183 -244 -141 -279 -63 -613 218 -935
l64 -74 -68 8 c-125 15 -272 8 -337 -16 -80 -29 -169 -79 -256 -147 l-73 -56
7 32 c3 18 44 119 90 224 131 300 164 426 153 599 -6 110 -58 280 -112 372
-63 107 -132 153 -380 255 -308 126 -391 193 -430 348 -44 171 75 349 292 437
l56 23 63 -51 c34 -29 67 -63 73 -77 18 -41 9 -155 -14 -180 -33 -37 -94 -63
-131 -56 -109 19 -104 19 -104 0 0 -71 156 -254 253 -300 103 -48 210 -22 299
73 92 99 132 215 126 362 -4 84 -8 104 -37 159 -38 75 -151 194 -231 244 -178
111 -388 158 -549 124 -220 -47 -449 -233 -522 -425 -17 -44 -20 -71 -17 -131
5 -88 33 -153 108 -256 28 -38 50 -71 50 -74 0 -10 -128 8 -219 31 -301 75
-523 197 -746 411 -99 94 -144 165 -184 287 -28 86 -26 156 6 267 30 104 30
104 142 104 101 -1 201 -77 201 -154 0 -37 -30 -90 -61 -106 -20 -11 -37 -10
-101 6 l-28 6 0 -73 c1 -140 52 -196 171 -187 66 5 100 25 137 78 33 49 52
124 52 208 0 238 -136 415 -348 454 -239 44 -518 -177 -539 -429 -10 -118 35
-286 120 -448 40 -77 185 -223 292 -294 120 -79 400 -213 580 -276 172 -61
361 -115 580 -165 272 -62 366 -117 496 -291 67 -90 96 -159 120 -280 11 -57
29 -134 41 -172 26 -87 22 -197 -10 -251 -19 -32 -20 -41 -10 -88 9 -43 8 -73
-6 -153 -40 -241 -117 -511 -221 -780 -133 -345 -295 -566 -560 -764 -145
-108 -283 -176 -411 -203 -134 -27 -417 -29 -514 -4 -225 61 -583 243 -670
343 -18 20 -50 46 -72 56 -68 34 -190 179 -248 296 -165 333 -91 847 160 1101
125 127 364 288 442 297 23 2 63 15 88 28 55 29 160 47 226 39 93 -10 115 -15
109 -25 -7 -11 34 -29 52 -22 6 2 48 -7 93 -21 44 -14 89 -26 99 -26 35 0 176
-79 224 -125 91 -87 154 -207 178 -339 22 -119 -16 -288 -86 -379 -28 -36
-187 -157 -207 -157 -2 0 -4 51 -4 113 1 97 -2 119 -23 165 -46 103 -186 197
-291 196 -69 0 -116 -24 -232 -116 -72 -57 -87 -73 -86 -96 0 -15 -5 -53 -12
-85 -27 -133 48 -360 160 -478 44 -47 95 -74 277 -143 40 -15 242 4 319 30
128 43 254 132 357 253 76 89 95 129 163 347 54 173 64 217 64 278 0 145 -62
404 -126 526 -41 79 -156 235 -227 308 -72 75 -159 135 -268 186 -163 77 -445
146 -595 146 -219 0 -578 -86 -778 -187 -92 -46 -150 -102 -270 -261 -134
-178 -139 -185 -192 -308 -26 -58 -67 -133 -91 -166 -42 -57 -46 -68 -80 -231
-39 -193 -40 -230 -2 -439 42 -240 103 -413 192 -545 27 -40 110 -135 185
-211 391 -393 791 -632 1213 -724 150 -32 433 -32 564 0 261 65 448 161 676
350 52 43 114 102 139 131 25 31 120 195 221 385 98 182 199 365 225 406 67
105 229 263 329 321 125 73 212 101 333 107 126 6 205 -13 290 -68 82 -52 135
-119 197 -245 76 -155 84 -202 56 -337 -32 -155 -48 -204 -81 -242 -37 -42
-62 -51 -178 -65 -92 -11 -93 -11 -164 18 -122 52 -176 101 -206 190 -26 76
-3 168 58 226 24 23 41 29 112 36 71 7 86 12 106 34 78 90 -44 220 -219 233
-154 11 -277 -63 -396 -238 -73 -108 -88 -169 -73 -301 23 -204 111 -318 325
-425 79 -39 103 -46 185 -54 142 -14 270 -12 327 5 61 18 220 133 261 190 42
58 70 81 76 64 12 -35 27 -103 46 -214 24 -140 52 -206 142 -337 198 -290 453
-459 713 -475 396 -23 714 331 620 690 -41 159 -195 366 -313 420 -68 32 -232
31 -315 -2 -72 -28 -163 -111 -197 -177 -31 -62 -38 -154 -16 -205 33 -78 123
-139 206 -138 51 0 69 8 131 62 51 44 47 64 -17 82 -34 9 -39 15 -42 44 -4 39
16 64 72 93 l39 20 56 -39 c107 -76 158 -187 148 -323 -11 -142 -58 -223 -162
-274 -238 -116 -542 59 -705 407 -79 168 -114 306 -161 627 -72 491 -121 607
-410 976 -6 7 20 6 79 -4 79 -14 95 -13 172 2 47 10 97 26 111 36 14 10 57 34
95 53 79 40 210 140 248 190 74 97 130 354 106 487 -33 180 -96 303 -197 382
-76 59 -128 85 -220 109 -105 26 -164 24 -278 -11 -116 -36 -150 -55 -208
-120 -58 -64 -85 -123 -93 -204 -18 -172 117 -304 299 -293 l70 4 41 53 c35
45 41 60 41 101 0 87 -69 149 -167 149 -56 0 -58 1 -48 21 23 42 82 98 116
109 121 40 276 -18 331 -125 19 -35 45 -122 45 -147 -1 -10 3 -20 9 -23 14
-10 11 -134 -5 -163 -8 -15 -17 -39 -20 -53 -3 -15 -23 -53 -45 -85 -115 -173
-251 -242 -455 -232 -137 7 -193 33 -289 131 -84 86 -129 156 -185 287 -36 84
-37 87 -37 215 1 159 17 208 109 329 69 90 147 158 236 205 146 78 482 178
566 168 25 -2 46 -1 49 3 12 20 88 19 182 -3 112 -27 148 -44 204 -94 61 -55
86 -107 123 -259 79 -319 187 -538 311 -631 95 -71 227 -100 309 -69 49 19
110 80 132 132 18 42 18 115 1 157 -44 103 -194 154 -299 101 -84 -43 -52
-160 41 -152 34 3 36 5 33 35 -3 25 2 35 22 48 14 9 33 14 43 11 29 -9 53 -59
53 -110 l0 -45 -56 -17 c-66 -19 -122 -9 -197 34 -66 38 -161 151 -208 249
-40 81 -88 247 -76 260 4 3 24 -6 44 -20 74 -51 137 -60 201 -30 50 23 127
104 160 167 23 44 27 63 27 136 0 76 -3 93 -32 151 -38 77 -120 163 -170 180
-132 43 -299 -57 -278 -168 8 -45 97 -140 135 -145 23 -3 25 0 22 34 -5 57 20
88 73 88 37 0 48 -5 74 -35 34 -39 33 -53 -14 -123 -33 -50 -90 -82 -146 -82
-87 0 -140 56 -204 215 -52 129 -95 177 -188 211 -122 44 -221 31 -405 -50
-56 -25 -104 -46 -107 -46 -3 0 15 30 40 66 57 85 71 145 56 241 -6 39 -14 79
-18 90 -4 10 25 -12 64 -48 187 -175 369 -202 531 -77 43 34 62 58 98 129 69
139 125 189 211 189 48 0 78 -20 104 -71 22 -44 19 -84 -7 -126 -28 -44 -124
-18 -124 33 0 29 21 54 45 54 31 0 35 34 6 50 -38 20 -72 12 -107 -26 -76 -80
-23 -183 102 -200 47 -6 53 -4 86 25 20 17 38 31 41 31 3 0 9 -15 12 -32 22
-102 123 -198 207 -198 36 0 102 38 121 69 44 75 -8 191 -87 191 -48 0 -65 -8
-81 -41 -19 -35 -19 -44 1 -63 30 -30 91 -13 65 18 -8 10 -8 16 3 25 23 20 56
-20 56 -67 0 -50 -24 -72 -78 -72 -83 0 -130 71 -161 244 -21 116 -58 194
-114 242 -42 36 -139 37 -194 2 -18 -11 -33 -18 -33 -15 0 2 11 30 25 61 35
79 40 124 21 171 -24 55 -43 73 -112 105 -97 44 -119 96 -64 151 40 40 74 37
78 -8 3 -28 -1 -33 -23 -39 -34 -9 -29 -32 14 -61 41 -28 42 -28 74 -3 28 22
43 74 33 114 -13 51 -93 103 -160 105 -36 1 -107 -39 -130 -73 -20 -32 -21
-80 0 -111 16 -24 15 -25 -7 -25 -36 1 -133 43 -177 78 -51 40 -76 92 -67 138
5 29 10 34 34 34 37 0 59 -24 41 -45 -7 -8 -19 -15 -26 -15 -15 0 -17 -10 -8
-34 7 -19 45 -21 62 -4 7 7 12 32 12 55 0 60 -33 93 -91 93 -33 0 -47 -6 -75
-34z"/>
<path d="M7455 5295 c-19 -18 -25 -35 -25 -68 0 -23 5 -48 12 -55 17 -17 55
-15 62 4 10 26 7 34 -13 34 -23 0 -35 28 -20 46 6 8 24 14 40 14 24 0 29 -5
34 -34 9 -46 -16 -98 -67 -138 -44 -35 -141 -77 -177 -78 -22 0 -23 1 -7 25
21 31 20 79 0 111 -23 34 -94 74 -130 73 -128 -3 -212 -133 -135 -210 35 -35
39 -35 82 -6 43 29 48 52 14 61 -22 6 -26 11 -23 39 4 45 38 48 78 8 55 -55
33 -107 -64 -151 -127 -58 -153 -137 -90 -278 13 -30 24 -57 24 -59 0 -3 -15
4 -32 15 -56 35 -153 34 -195 -2 -56 -48 -93 -126 -114 -242 -31 -174 -78
-244 -163 -244 -53 0 -76 22 -76 73 0 46 33 85 56 66 11 -9 11 -15 3 -25 -28
-34 35 -48 66 -14 15 17 16 23 5 50 -15 37 -37 50 -85 50 -82 0 -133 -117 -85
-195 20 -33 80 -65 121 -65 81 0 182 98 204 198 3 17 9 32 12 32 3 0 21 -14
41 -31 33 -29 39 -31 86 -25 125 17 178 120 102 200 -35 38 -69 46 -107 26
-25 -14 -25 -50 0 -50 25 0 51 -26 51 -51 0 -54 -95 -82 -124 -36 -26 42 -29
82 -7 126 26 51 56 71 104 71 86 0 142 -50 212 -190 37 -73 54 -96 98 -129 93
-70 178 -90 282 -66 89 20 161 62 248 144 39 36 68 58 64 48 -4 -11 -12 -51
-18 -90 -15 -96 -1 -156 56 -241 25 -36 43 -66 40 -66 -3 0 -51 21 -107 46
-184 81 -283 94 -405 50 -93 -34 -136 -83 -188 -211 -65 -160 -117 -215 -205
-215 -73 0 -141 52 -175 134 -15 34 -14 36 16 71 27 30 37 35 75 35 38 0 45
-4 59 -31 9 -16 15 -45 13 -62 -3 -29 -1 -32 22 -29 38 5 127 100 135 145 21
111 -146 211 -278 168 -50 -17 -132 -103 -170 -180 -29 -58 -32 -75 -32 -151
0 -73 4 -92 27 -136 33 -63 110 -144 160 -167 64 -30 127 -21 201 30 20 14 40
23 44 20 12 -13 -36 -179 -76 -260 -47 -98 -142 -211 -208 -249 -75 -43 -131
-53 -197 -34 l-56 17 0 45 c0 51 24 101 53 110 10 3 29 -2 43 -11 20 -13 25
-23 22 -48 -3 -30 -1 -32 34 -35 91 -8 122 110 40 152 -77 39 -181 25 -245
-33 -22 -20 -46 -50 -54 -68 -17 -42 -17 -115 1 -157 22 -52 83 -113 132 -132
82 -31 214 -2 309 69 124 93 232 312 311 631 37 152 62 204 123 259 56 50 92
67 204 94 94 22 170 23 182 3 3 -4 24 -5 49 -3 84 10 420 -90 566 -168 89 -47
167 -115 236 -205 92 -121 108 -170 109 -329 0 -128 -1 -131 -37 -215 -56
-131 -101 -201 -185 -287 -96 -98 -152 -124 -289 -131 -204 -10 -340 59 -455
232 -22 32 -42 70 -45 85 -3 14 -12 38 -20 53 -16 29 -19 153 -5 163 6 3 10
13 9 23 0 25 26 112 45 147 55 107 209 165 331 125 33 -11 93 -67 115 -108 10
-19 7 -20 -59 -24 -63 -3 -73 -7 -105 -38 -68 -66 -70 -133 -6 -214 39 -49 39
-49 108 -53 181 -11 317 122 299 294 -8 80 -35 139 -93 203 -58 65 -92 84
-208 120 -114 35 -173 37 -278 11 -92 -24 -144 -50 -220 -109 -101 -79 -164
-202 -197 -382 -28 -155 42 -431 132 -516 68 -65 158 -129 227 -164 36 -18 76
-40 90 -50 14 -10 64 -26 111 -36 77 -15 93 -16 172 -2 59 10 85 11 79 4 -289
-369 -338 -485 -410 -976 -47 -321 -82 -459 -161 -627 -163 -348 -467 -523
-705 -407 -104 51 -151 132 -162 274 -10 136 41 247 148 323 l56 39 39 -20
c56 -29 76 -54 72 -93 -3 -29 -8 -35 -42 -44 -64 -18 -68 -38 -17 -82 62 -54
80 -62 131 -62 83 -1 173 60 206 138 22 51 15 143 -16 205 -34 66 -125 149
-197 177 -83 33 -247 34 -315 2 -118 -54 -272 -261 -313 -420 -63 -242 71
-513 309 -628 341 -164 739 -4 1024 413 86 126 118 199 137 312 19 118 45 232
55 243 7 8 90 -78 90 -94 0 -16 187 -144 235 -161 57 -20 183 -23 333 -8 107
10 199 47 307 124 149 107 206 223 208 420 0 100 -13 144 -74 233 -90 132
-170 199 -273 229 -163 46 -366 -40 -366 -155 0 -68 29 -90 128 -100 71 -7 88
-13 112 -36 61 -58 84 -150 58 -226 -30 -89 -84 -138 -206 -190 -71 -29 -72
-29 -164 -18 -116 14 -141 23 -178 65 -33 38 -49 87 -81 242 -28 135 -20 182
56 337 116 236 253 324 487 313 121 -6 208 -34 333 -107 100 -58 262 -216 329
-321 26 -41 127 -224 225 -406 101 -190 196 -354 221 -385 25 -29 87 -88 139
-131 228 -189 415 -285 676 -350 131 -32 414 -32 564 0 420 92 818 328 1207
718 72 73 152 161 178 197 112 157 193 413 228 717 11 104 11 108 -25 282 -34
169 -37 178 -80 237 -25 33 -66 110 -93 170 -38 89 -71 142 -169 273 -140 188
-196 243 -291 291 -200 101 -559 187 -778 187 -150 0 -432 -69 -595 -146 -109
-51 -196 -111 -268 -186 -71 -73 -186 -229 -227 -308 -64 -121 -126 -379 -126
-520 0 -67 9 -106 61 -276 68 -221 79 -247 139 -323 107 -135 246 -239 384
-285 77 -26 279 -45 319 -30 182 69 233 96 277 143 112 118 187 345 160 478
-7 32 -12 70 -12 85 1 23 -14 39 -86 96 -116 92 -163 116 -232 116 -105 1
-245 -93 -291 -196 -21 -46 -24 -68 -23 -165 0 -62 -2 -113 -4 -113 -20 0
-179 121 -207 157 -70 91 -108 260 -86 379 24 132 87 252 178 339 48 46 189
125 224 125 10 0 55 12 99 26 45 14 87 23 93 21 18 -7 59 11 52 22 -6 10 16
15 109 25 66 8 171 -10 226 -39 25 -13 65 -26 88 -28 75 -9 312 -166 438 -292
102 -101 188 -273 231 -460 26 -111 23 -376 -5 -480 -32 -118 -100 -248 -177
-338 -63 -74 -136 -137 -158 -137 -6 0 -25 -18 -44 -40 -67 -78 -288 -204
-518 -293 -161 -63 -201 -70 -395 -69 -323 0 -470 53 -735 260 -226 178 -386
405 -510 727 -103 266 -178 529 -222 778 -14 81 -15 108 -5 153 10 49 9 58
-10 90 -32 54 -36 164 -10 251 12 38 30 115 41 172 24 121 53 190 120 280 130
174 228 231 499 292 474 107 877 260 1145 435 124 81 259 213 304 299 73 140
123 306 123 412 0 113 -54 229 -149 324 -111 111 -262 165 -393 141 -212 -39
-348 -216 -348 -454 0 -84 19 -159 52 -208 37 -53 71 -73 137 -78 119 -9 170
47 171 187 l0 73 -27 -6 c-89 -22 -111 -17 -143 37 -61 100 41 217 189 217 94
0 105 -7 132 -92 33 -107 36 -191 9 -275 -40 -125 -85 -196 -185 -291 -223
-214 -445 -336 -746 -411 -91 -23 -219 -41 -219 -31 0 3 22 36 50 74 86 118
105 167 105 271 0 107 -22 165 -95 256 -117 146 -279 251 -441 285 -161 35
-372 -13 -549 -124 -83 -52 -192 -167 -230 -242 -30 -57 -34 -77 -38 -161 -6
-147 34 -263 126 -362 89 -95 196 -121 299 -73 97 46 253 229 253 300 0 19 5
19 -104 0 -37 -7 -98 19 -131 56 -23 25 -32 139 -14 180 6 14 39 48 73 77 l63
51 56 -23 c217 -88 336 -266 292 -438 -34 -134 -128 -219 -345 -311 -257 -108
-307 -132 -364 -175 -148 -114 -245 -420 -206 -658 18 -114 52 -215 146 -429
46 -105 87 -206 90 -224 l7 -32 -73 56 c-87 68 -176 118 -256 147 -65 24 -212
31 -337 16 l-68 -8 66 76 c277 318 355 657 216 933 -38 76 -140 212 -183 244
-18 13 -112 67 -208 119 -212 115 -281 173 -337 286 -31 63 -37 85 -37 141 0
108 47 176 159 228 79 37 207 26 264 -22 57 -47 47 -180 -16 -237 -68 -60
-173 -25 -173 59 0 65 -68 74 -108 14 -32 -47 -28 -139 7 -189 39 -54 136
-111 188 -111 115 0 189 48 246 162 23 47 27 67 27 142 0 101 -13 134 -85 214
l-46 51 38 9 c21 5 63 15 93 21 71 15 143 56 218 126 139 129 184 281 124 418
-24 54 -83 116 -137 142 -60 30 -165 28 -230 -5 -70 -35 -141 -106 -154 -154
-12 -46 0 -114 29 -161 22 -36 87 -75 123 -75 87 0 142 104 84 158 -29 27 -33
27 -40 2 -7 -28 -43 -25 -63 6 -16 24 -16 27 3 52 37 50 81 72 142 72 107 0
166 -56 165 -156 -3 -162 -169 -285 -446 -329 -313 -50 -375 -74 -532 -208
l-58 -50 8 34 c5 19 9 66 8 104 -1 59 -6 79 -32 126 -57 100 -103 144 -174
164 -165 47 -304 0 -367 -124 -67 -130 -10 -299 112 -332 87 -23 167 37 167
128 0 38 -4 46 -32 63 -42 25 -51 25 -84 -3 -19 -17 -27 -33 -27 -55 0 -38 -6
-40 -35 -9 -51 54 -48 133 7 180 34 28 135 52 184 43 46 -9 110 -56 144 -108
22 -33 28 -55 31 -113 5 -88 -15 -134 -82 -188 -72 -59 -140 -87 -216 -87 -79
0 -131 22 -194 80 -101 93 -179 357 -142 482 23 81 55 105 183 140 226 61 319
136 322 257 1 25 -7 41 -33 67 -44 44 -103 48 -141 9z"/>
</g>
</svg>
